<svg width="24" height="24" viewBox="0 0 24 24" fill="none" xmlns="http://www.w3.org/2000/svg">
<g clip-path="url(#clip0)">
<path d="M19.604 2.56201L16.258 5.69901C14.988 5.27101 13.572 5.00001 12.015 5.00001C4.446 5.00001 0 11.551 0 11.551C0 11.551 1.928 14.502 5.146 16.689L2.235 19.598L3.649 21.012L21.019 3.97701L19.604 2.56201ZM13.588 8.34101C10.3 6.88801 6.907 10.249 8.323 13.547L6.597 15.254C4.783 14.094 3.372 12.604 2.537 11.594C4.03 9.94601 7.354 7.00001 12.015 7.00001C12.942 7.00001 13.811 7.11901 14.625 7.31501L13.588 8.34101ZM10.705 15.772L15.795 10.779C16.812 13.89 13.792 16.846 10.705 15.772ZM24 11.551C24 11.551 19.748 19 12.015 19C10.636 19 9.353 18.709 8.164 18.263L9.778 16.68C10.493 16.873 11.236 17 12.015 17C16.806 17 20.119 13.473 21.519 11.636C20.79 10.814 19.563 9.64601 17.932 8.68401L19.421 7.22401C22.403 9.12401 24 11.551 24 11.551Z" fill="#505071"/>
</g>
<defs>
<clipPath id="clip0">
<rect width="24" height="24" fill="white"/>
</clipPath>
</defs>
</svg>
