<svg width="32" height="32" viewBox="0 0 32 32" fill="none" xmlns="http://www.w3.org/2000/svg">
<path d="M9 8C9 8.55228 8.55228 9 8 9H3C2.44772 9 2 8.55228 2 8V3C2 2.44772 2.44772 2 3 2H8C8.55228 2 9 2.44772 9 3V8ZM19.5 3C19.5 2.44772 19.0523 2 18.5 2H13.5C12.9477 2 12.5 2.44772 12.5 3V8C12.5 8.55228 12.9477 9 13.5 9H18.5C19.0523 9 19.5 8.55228 19.5 8V3ZM30 3C30 2.44772 29.5523 2 29 2H24C23.4477 2 23 2.44772 23 3V8C23 8.55228 23.4477 9 24 9H29C29.5523 9 30 8.55228 30 8V3ZM9 13.5C9 12.9477 8.55228 12.5 8 12.5H3C2.44772 12.5 2 12.9477 2 13.5V18.5C2 19.0523 2.44772 19.5 3 19.5H8C8.55228 19.5 9 19.0523 9 18.5V13.5ZM19.5 13.5C19.5 12.9477 19.0523 12.5 18.5 12.5H13.5C12.9477 12.5 12.5 12.9477 12.5 13.5V18.5C12.5 19.0523 12.9477 19.5 13.5 19.5H18.5C19.0523 19.5 19.5 19.0523 19.5 18.5V13.5ZM30 13.5C30 12.9477 29.5523 12.5 29 12.5H24C23.4477 12.5 23 12.9477 23 13.5V18.5C23 19.0523 23.4477 19.5 24 19.5H29C29.5523 19.5 30 19.0523 30 18.5V13.5ZM9 24C9 23.4477 8.55228 23 8 23H3C2.44772 23 2 23.4477 2 24V29C2 29.5523 2.44772 30 3 30H8C8.55228 30 9 29.5523 9 29V24ZM19.5 24C19.5 23.4477 19.0523 23 18.5 23H13.5C12.9477 23 12.5 23.4477 12.5 24V29C12.5 29.5523 12.9477 30 13.5 30H18.5C19.0523 30 19.5 29.5523 19.5 29V24ZM30 24C30 23.4477 29.5523 23 29 23H24C23.4477 23 23 23.4477 23 24V29C23 29.5523 23.4477 30 24 30H29C29.5523 30 30 29.5523 30 29V24Z" fill="#505071"/>
</svg>
