<svg width="104" height="104" viewBox="0 0 104 104" fill="none" xmlns="http://www.w3.org/2000/svg">
<path d="M93.8622 38.5512C86.3856 39.463 81.7355 35.1776 81.7355 35.1776C81.7355 35.1776 77.0854 39.463 69.6088 38.5512C69.6088 38.5512 67.2382 58.3369 81.7355 62.6222C96.2328 58.3369 93.8622 38.5512 93.8622 38.5512Z" stroke="#505071" stroke-width="3" stroke-miterlimit="10" stroke-linecap="round" stroke-linejoin="round"/>
<path d="M81.8266 58.3369C77.906 57.1516 75.8089 54.325 74.6235 51.4073C74.6235 51.4073 74.6235 51.4073 74.6235 51.4985C77.1765 54.7809 82.1913 54.8721 84.8355 51.6809C88.1179 47.669 89.6679 43.019 90.0327 41.8336C90.1238 41.7425 91.765 55.4192 81.8266 58.3369Z" fill="#00D9BA"/>
<path d="M54.1997 38.7336C62.307 38.7336 68.8794 30.5284 68.8794 20.4068C68.8794 10.2852 62.307 2.08002 54.1997 2.08002C46.0923 2.08002 39.52 10.2852 39.52 20.4068C39.52 30.5284 46.0923 38.7336 54.1997 38.7336Z" stroke="#505071" stroke-width="3" stroke-miterlimit="10" stroke-linecap="round"/>
<path d="M54.1998 6.91248C53.0144 6.91248 51.9203 7.18601 50.8262 7.73308C54.6556 9.64782 57.4822 14.6626 57.4822 20.4068C57.4822 26.1511 54.6556 31.1658 50.8262 33.0806C51.8291 33.6277 53.0144 33.9012 54.1998 33.9012C59.5793 33.9012 64.1382 27.7011 64.1382 20.4068C64.1382 13.1126 59.6704 6.91248 54.1998 6.91248Z" fill="#FF6C7D"/>
<path d="M43.7143 33.1718C43.7143 33.1718 33.32 38.8248 29.217 42.1072C28.214 42.9278 27.3934 43.8396 26.7552 44.8425C25.5699 46.7573 24.9316 49.1279 24.9316 51.4074V61.437" stroke="#505071" stroke-width="3" stroke-miterlimit="10" stroke-linecap="round"/>
<path d="M73.5295 79.6726L82.4649 71.193C86.4767 67.3635 92.8592 67.4547 96.6887 71.4665C97.874 72.6519 97.874 74.6578 96.5975 75.8431L78.5443 92.9846C73.8942 97.3611 66.6911 99.7317 60.3086 100.005C53.9262 100.279 47.6349 99.2759 41.2524 98.9111C31.6787 98.3641 16.0873 99.367 6.78711 101.92" stroke="#505071" stroke-width="3" stroke-miterlimit="10" stroke-linecap="round" stroke-linejoin="round"/>
<path d="M34.5966 82.5902L46.0851 85.052C49.7322 85.7815 53.3793 86.2374 57.0264 86.2374H63.2265C66.4178 86.2374 68.9707 83.6844 68.9707 80.4931C68.9707 77.3019 66.4178 74.7489 63.2265 74.7489H57.7558C52.7411 74.7489 47.7263 73.746 43.1674 71.74C39.8849 70.3724 36.6937 68.9135 33.2289 68.0017C23.7464 65.6311 13.1698 68.5488 6.24023 75.3872" stroke="#505071" stroke-width="3" stroke-miterlimit="10" stroke-linecap="round" stroke-linejoin="round"/>
</svg>
