<svg width="103" height="103" viewBox="0 0 103 103" fill="none" xmlns="http://www.w3.org/2000/svg">
<path d="M51.7217 2.47198V46.9615" stroke="#505071" stroke-width="3" stroke-miterlimit="10" stroke-linecap="round" stroke-linejoin="round"/>
<path d="M57.0137 71.8723L65.5615 79.1176C67.0676 80.3388 67.9223 82.1704 67.9223 84.1242V100.528" stroke="#505071" stroke-width="3" stroke-miterlimit="10" stroke-linecap="round" stroke-linejoin="round"/>
<path d="M46.4302 71.8723L37.8823 79.1176C36.3763 80.3388 35.5215 82.1704 35.5215 84.1242V100.528" stroke="#505071" stroke-width="3" stroke-miterlimit="10" stroke-linecap="round" stroke-linejoin="round"/>
<path d="M61.8574 85.671V89.1309V100.487" stroke="#505071" stroke-width="3" stroke-miterlimit="10" stroke-linecap="round" stroke-linejoin="round"/>
<path d="M41.5869 85.671V89.1309V100.487" stroke="#505071" stroke-width="3" stroke-miterlimit="10" stroke-linecap="round" stroke-linejoin="round"/>
<path d="M61.8167 64.826C62.7454 59.2602 58.9864 53.9953 53.4206 53.0665C47.8548 52.1378 42.5899 55.8968 41.6612 61.4626C40.7324 67.0284 44.4915 72.2933 50.0572 73.2221C55.623 74.1508 60.8879 70.3918 61.8167 64.826Z" stroke="#505071" stroke-width="3" stroke-miterlimit="10" stroke-linecap="round" stroke-linejoin="round"/>
<path d="M51.7217 68.8603C48.5468 68.8603 45.9824 66.2959 45.9824 63.121C45.9824 59.9461 48.5468 57.3817 51.7217 57.3817C54.8966 57.3817 57.4609 59.9461 57.4609 63.121C57.4609 66.2959 54.8559 68.8603 51.7217 68.8603Z" fill="#00D9BA"/>
<path d="M78.2203 64.505C75.158 64.505 72.6846 62.0315 72.6846 58.9692C72.6846 55.9069 75.158 53.4335 78.2203 53.4335C81.2826 53.4335 83.7561 55.9069 83.7561 58.9692C83.7561 62.0315 81.2434 64.505 78.2203 64.505Z" fill="#D6B218"/>
<path d="M24.8981 64.505C21.8357 64.505 19.3623 62.0315 19.3623 58.9692C19.3623 55.9069 21.8357 53.4335 24.8981 53.4335C27.9604 53.4335 30.4338 55.9069 30.4338 58.9692C30.4338 62.0315 27.9211 64.505 24.8981 64.505Z" fill="#FF6C7D"/>
<path d="M9.10449 45.1298C9.10449 21.6029 28.154 2.47198 51.7216 2.47198C75.2892 2.47198 94.3387 21.6843 94.3387 45.2112" stroke="#505071" stroke-width="3" stroke-miterlimit="10" stroke-linecap="round" stroke-linejoin="round"/>
<path d="M39.4288 12.241C34.0151 18.7943 28.8457 29.1738 28.8457 45.0891" stroke="#505071" stroke-width="3" stroke-miterlimit="10" stroke-linecap="round" stroke-linejoin="round"/>
<path d="M51.7214 26.813C28.1945 26.813 22.0889 14.4797 22.0889 14.4797" stroke="#505071" stroke-width="3" stroke-miterlimit="10" stroke-linecap="round" stroke-linejoin="round"/>
<path d="M64.0146 12.241C69.4283 18.7943 74.557 29.2145 74.557 45.0891" stroke="#505071" stroke-width="3" stroke-miterlimit="10" stroke-linecap="round" stroke-linejoin="round"/>
<path d="M51.7217 26.813C75.2486 26.813 81.3542 14.4797 81.3542 14.4797" stroke="#505071" stroke-width="3" stroke-miterlimit="10" stroke-linecap="round" stroke-linejoin="round"/>
<path d="M10.6926 56.8119C9.63431 53.1078 9.06445 49.1595 9.06445 45.1298" stroke="#505071" stroke-width="3" stroke-miterlimit="10" stroke-linecap="round" stroke-linejoin="round"/>
<path d="M94.3391 45.1298C94.3391 49.1595 93.7692 53.0671 92.7109 56.8119" stroke="#505071" stroke-width="3" stroke-miterlimit="10" stroke-linecap="round" stroke-linejoin="round"/>
<path d="M20.0946 67.0286L12.2794 73.6633C10.8954 74.803 10.1221 76.4719 10.1221 78.2629V93.242" stroke="#505071" stroke-width="3" stroke-miterlimit="10" stroke-linecap="round" stroke-linejoin="round"/>
<path d="M29.8232 67.0286L37.6384 73.6633" stroke="#505071" stroke-width="3" stroke-miterlimit="10" stroke-linecap="round" stroke-linejoin="round"/>
<path d="M15.6989 79.6876L15.6582 82.8625V93.242" stroke="#505071" stroke-width="3" stroke-miterlimit="10" stroke-linecap="round" stroke-linejoin="round"/>
<path d="M33.5507 62.6375C35.5209 57.8813 33.2623 52.4285 28.5061 50.4584C23.7499 48.4883 18.2971 50.7468 16.327 55.503C14.3569 60.2593 16.6154 65.712 21.3716 67.6822C26.1279 69.6523 31.5806 67.3937 33.5507 62.6375Z" stroke="#505071" stroke-width="3" stroke-miterlimit="10" stroke-linecap="round" stroke-linejoin="round"/>
<path d="M83.1045 67.0286L90.9197 73.6633C92.3036 74.803 93.077 76.4719 93.077 78.2629V93.242" stroke="#505071" stroke-width="3" stroke-miterlimit="10" stroke-linecap="round" stroke-linejoin="round"/>
<path d="M73.3767 67.0286L65.5615 73.6633" stroke="#505071" stroke-width="3" stroke-miterlimit="10" stroke-linecap="round" stroke-linejoin="round"/>
<path d="M87.501 79.6876V82.8625V93.242" stroke="#505071" stroke-width="3" stroke-miterlimit="10" stroke-linecap="round" stroke-linejoin="round"/>
<path d="M87.3534 60.9448C88.3887 55.9018 85.1398 50.9745 80.0969 49.9392C75.0539 48.9039 70.1266 52.1528 69.0913 57.1958C68.056 62.2387 71.3049 67.1661 76.3479 68.2013C81.3908 69.2366 86.3182 65.9877 87.3534 60.9448Z" stroke="#505071" stroke-width="3" stroke-miterlimit="10" stroke-linecap="round" stroke-linejoin="round"/>
</svg>
