<svg width="103" height="103" viewBox="0 0 103 103" fill="none" xmlns="http://www.w3.org/2000/svg">
<path d="M84.5786 90.3091L92.4649 63.7584C93.3411 60.8668 91.1505 57.9313 88.1274 57.9313H51.5437H14.9161C11.893 57.9313 9.70238 60.8668 10.5786 63.7584L18.465 90.3091H51.6751" stroke="#505071" stroke-width="3" stroke-miterlimit="10" stroke-linecap="round" stroke-linejoin="round"/>
<path d="M12.8573 84.7448L8.65125 92.6749C7.42449 94.997 9.08938 97.7572 11.7182 97.7572H51.5002H91.2823C93.9111 97.7572 95.576 94.997 94.3492 92.6749L90.1432 84.7448" stroke="#505071" stroke-width="3" stroke-miterlimit="10" stroke-linecap="round" stroke-linejoin="round"/>
<path d="M51.4999 40.6692C59.364 40.6692 65.7391 32.7641 65.7391 23.0126C65.7391 13.2611 59.364 5.35602 51.4999 5.35602C43.6358 5.35602 37.2607 13.2611 37.2607 23.0126C37.2607 32.7641 43.6358 40.6692 51.4999 40.6692Z" stroke="#505071" stroke-width="3" stroke-miterlimit="10" stroke-linecap="round" stroke-linejoin="round"/>
<path d="M88.2149 62.3563C88.1711 62.3125 88.1273 62.3125 88.0835 62.3125H51.4997H14.916C14.8722 62.3125 14.8283 62.3125 14.7845 62.3563C14.7407 62.4001 14.7407 62.4439 14.7407 62.4877L18.8591 76.3764C18.8591 76.3326 18.9029 76.2888 18.9029 76.2888C21.5317 71.7761 26.3949 68.9721 31.6087 68.9721H86.2871L88.2149 62.5316C88.2587 62.4878 88.2587 62.4439 88.2149 62.3563Z" fill="#D6B218"/>
<path d="M61.6646 35.3678C61.6646 35.3678 71.7415 40.8444 75.6847 43.9989C76.6047 44.7438 77.3934 45.6638 78.0506 46.6715C79.2335 48.5555 79.7593 50.7899 79.7593 52.9806V57.9314" stroke="#505071" stroke-width="3" stroke-miterlimit="10" stroke-linecap="round" stroke-linejoin="round"/>
<path d="M41.3353 35.3679C41.3353 35.3679 31.2583 40.8445 27.3152 43.9991C26.3951 44.7439 25.6065 45.6639 24.9493 46.6716C23.7663 48.5556 23.1968 50.79 23.1968 52.9807V57.9315" stroke="#505071" stroke-width="3" stroke-miterlimit="10" stroke-linecap="round" stroke-linejoin="round"/>
</svg>
