<svg width="426" height="325" viewBox="0 0 426 325" fill="none" xmlns="http://www.w3.org/2000/svg">
<path opacity="0.5" d="M193.64 156.975C193.442 156.678 192.204 155.092 189.578 154.646C186.952 154.151 184.425 154.646 182.938 154.943C181.452 155.29 181.898 156.876 181.898 156.876C181.898 156.876 182.294 158.461 183.235 161.087C183.533 161.83 183.929 162.475 184.474 162.921C185.316 162.029 186.456 161.385 187.744 161.186C187.348 160.344 187.1 159.65 187.1 159.65C187.1 159.65 186.159 158.263 188.141 158.313C190.172 158.362 191.114 157.966 192.104 160.493C192.204 160.74 192.253 160.939 192.303 161.137H195.226C194.83 158.957 193.839 157.173 193.64 156.975Z" fill="#00D9BA"/>
<path opacity="0.5" d="M229.067 154.944C227.58 154.597 225.103 154.151 222.477 154.646C219.901 155.142 218.662 156.678 218.464 156.975C218.315 157.223 217.324 158.957 216.928 161.137H219.801C219.851 160.939 219.901 160.741 220 160.493C220.991 157.966 221.932 158.412 223.914 158.313C225.896 158.263 224.954 159.651 224.954 159.651C224.954 159.651 224.707 160.344 224.31 161.137H224.608C225.896 161.137 227.085 161.583 228.026 162.326C228.324 161.979 228.522 161.533 228.72 161.088C229.661 158.412 230.058 156.876 230.058 156.876C230.058 156.876 230.553 155.241 229.067 154.944Z" fill="#00D9BA"/>
<path d="M205.433 255.427C187.546 264.345 185.267 276.039 185.267 282.381C185.267 303.091 208.356 312.109 225.004 316.618C238.382 320.235 252.156 321.573 265.93 322.663C277.079 323.555 288.227 324 299.424 324C324.545 324 348.476 321.87 366.859 318.005C377.462 315.776 386.281 312.951 393.02 309.582C393.416 309.384 393.812 309.186 394.209 308.988" stroke="#7A79A1" stroke-width="2" stroke-miterlimit="10" stroke-linecap="round" stroke-linejoin="round"/>
<path d="M248.49 256.963C256.913 255.724 266.129 254.832 275.79 254.287" stroke="#7A79A1" stroke-width="2" stroke-miterlimit="10" stroke-linecap="round" stroke-linejoin="round"/>
<path d="M288.078 310.969C268.358 310.424 249.976 308.541 235.409 305.469C226.144 303.537 218.613 301.109 213.063 298.334C202.212 292.934 199.933 286.641 199.933 282.33C199.933 278.02 202.212 271.777 213.063 266.327C217.572 264.097 223.32 262.115 230.256 260.381" stroke="#7A79A1" stroke-width="2" stroke-miterlimit="10" stroke-linecap="round" stroke-linejoin="round"/>
<path d="M347.882 256.615C360.913 258.399 375.331 260.529 386.975 266.971C392.623 270.092 398.916 275.344 398.916 282.38C398.916 286.691 396.637 292.934 385.786 298.384C380.237 301.158 372.705 303.537 363.44 305.519C348.923 308.591 330.54 310.473 310.771 311.018" stroke="#7A79A1" stroke-width="2" stroke-miterlimit="10" stroke-linecap="round" stroke-linejoin="round"/>
<path d="M219.356 288.276C217.275 286.839 214.599 285.204 214.599 282.38C214.599 278.317 221.09 274.552 232.04 271.529" stroke="#7A79A1" stroke-width="2" stroke-miterlimit="10" stroke-linecap="round" stroke-linejoin="round"/>
<path d="M347.684 267.664C353.827 268.556 359.922 269.745 365.917 271.281C370.723 272.52 375.48 273.957 379.741 276.583C381.772 277.821 384.299 279.754 384.299 282.38C384.299 288.969 367.354 294.717 342.134 297.838" stroke="#7A79A1" stroke-width="2" stroke-miterlimit="10" stroke-linecap="round" stroke-linejoin="round"/>
<path d="M246.854 268.308C252.503 267.367 258.597 266.574 265.237 265.979" stroke="#7A79A1" stroke-width="2" stroke-miterlimit="10" stroke-linecap="round" stroke-linejoin="round"/>
<path d="M331.185 241.949C344.315 242.94 356.503 244.575 366.859 246.805" stroke="#7A79A1" stroke-width="2" stroke-miterlimit="10" stroke-linecap="round" stroke-linejoin="round"/>
<path d="M248.836 243.932C261.174 242.247 274.601 241.256 289.019 240.909" stroke="#7A79A1" stroke-width="2" stroke-miterlimit="10" stroke-linecap="round" stroke-linejoin="round"/>
<path d="M236.301 197.505C244.823 198.545 253.742 200.131 262.908 202.46" stroke="white" stroke-width="2" stroke-miterlimit="10" stroke-linecap="round" stroke-linejoin="round"/>
<path d="M152.863 203.203C152.863 203.203 156.48 202.014 162.971 200.626L167.133 199.784C170.205 199.189 173.723 198.595 177.587 198.05" stroke="white" stroke-width="2" stroke-miterlimit="10" stroke-linecap="round" stroke-linejoin="round"/>
<path d="M130.566 162.326C131.557 166.637 132.747 170.898 134.134 175.06C135.818 180.015 137.751 184.771 139.98 189.28C145.579 200.676 157.471 208.009 170.551 208.009H184.226" stroke="white" stroke-width="2" stroke-miterlimit="10" stroke-linecap="round" stroke-linejoin="round"/>
<path d="M127.495 125.711C127.396 127.99 127.346 130.319 127.346 132.648C127.346 137.503 127.594 142.309 128.089 147.066" stroke="white" stroke-width="2" stroke-miterlimit="10" stroke-linecap="round" stroke-linejoin="round"/>
<path d="M133.242 93.0094C133.539 92.1176 133.837 91.1762 134.134 90.2843C138.94 76.1137 146.224 62.6368 156.43 51.6373C161.137 46.5339 166.439 41.9755 172.286 38.1604C178.776 33.9488 185.812 30.7283 193.393 29.0932C201.221 27.359 209.446 27.1113 217.374 28.2013C224.855 29.1923 232.089 32.1651 238.63 35.8812C244.526 39.1513 249.877 43.3629 254.683 48.0699C257.408 50.6959 259.935 53.5201 262.264 56.4929C266.228 61.4477 269.795 66.8979 272.867 72.695" stroke="white" stroke-width="2" stroke-miterlimit="10" stroke-linecap="round" stroke-linejoin="round"/>
<path d="M228.472 208.009H236.301H241.553H244.03C257.111 208.009 269.052 200.725 274.601 189.28C276.831 184.771 278.763 180.015 280.447 175.06C282.429 169.263 283.866 163.268 284.956 157.272C286.393 149.147 287.235 140.922 287.235 132.697C287.235 117.932 284.956 103.712 280.398 90.2842" stroke="white" stroke-width="2" stroke-miterlimit="10" stroke-linecap="round" stroke-linejoin="round"/>
<path d="M152.863 234.814C146.769 229.067 140.724 223.22 135.67 216.481" stroke="#EDEDF9" stroke-width="2" stroke-miterlimit="10" stroke-linecap="round" stroke-linejoin="round"/>
<path d="M112.333 102.028C115.851 84.785 122.342 69.0289 130.963 55.6016" stroke="#EDEDF9" stroke-width="2" stroke-miterlimit="10" stroke-linecap="round" stroke-linejoin="round"/>
<path d="M267.615 150.138C266.277 150.93 263.948 150.584 262.511 150.385C260.084 150.039 257.309 149.394 255.03 148.354C252.106 147.016 249.381 145.381 246.755 143.498C240.909 139.336 235.706 134.134 230.801 129.08C226.837 124.968 222.972 120.706 219.405 116.247C217.77 114.216 215.986 111.986 214.45 109.657C213.063 107.477 211.874 105.198 211.378 102.82C211.032 101.234 210.982 98.8065 211.527 97.221C214.153 89.9375 229.76 97.9642 233.328 100.442C238.679 104.158 242.841 110.054 246.458 115.405C249.53 119.963 252.453 125.215 253.989 130.566C255.178 134.679 257.16 139.336 259.638 142.408C261.421 144.638 262.809 145.678 265.682 147.115C266.872 147.512 269.398 149.048 267.615 150.138Z" stroke="#00D9BA" stroke-width="2" stroke-miterlimit="10" stroke-linecap="round" stroke-linejoin="round"/>
<path d="M197.506 161.137H188.538C188.24 161.137 187.993 161.137 187.695 161.187C186.407 161.385 185.267 162.029 184.425 162.921C183.434 164.011 182.84 165.547 183.038 167.182L183.087 167.529C182.047 167.083 181.105 166.588 180.362 165.646C178.727 163.664 177.736 160.642 177.142 158.214C176.597 156.133 175.358 153.259 177.736 151.872C179.817 150.683 183.137 150.782 185.416 150.732C187.745 150.732 189.38 151.03 190.916 151.525C195.028 152.764 196.762 157.025 197.506 161.137Z" stroke="#00D9BA" stroke-width="2" stroke-miterlimit="10" stroke-linecap="round" stroke-linejoin="round"/>
<path d="M234.815 158.213C234.22 160.641 233.279 163.664 231.643 165.646C231.198 166.141 230.752 166.537 230.207 166.884C230.306 165.051 229.463 163.366 228.126 162.326C227.184 161.583 225.995 161.137 224.707 161.137H214.698C215.441 157.024 217.176 152.763 221.239 151.524C222.774 151.079 224.36 150.732 226.639 150.732C228.918 150.732 232.189 150.682 234.22 151.871C236.549 153.209 235.31 156.132 234.815 158.213Z" stroke="#00D9BA" stroke-width="2" stroke-miterlimit="10" stroke-linecap="round" stroke-linejoin="round"/>
<path d="M216.085 101.135C216.085 101.135 215.64 99.4013 217.82 98.9554C220 98.5094 226.144 99.8472 231.396 104.207" stroke="#00D9BA" stroke-width="2" stroke-miterlimit="10" stroke-linecap="round" stroke-linejoin="round"/>
<path d="M250.62 172.087C250.521 191.063 236.301 197.505 236.301 197.505L236.251 197.554C230.702 206.324 222.774 214.004 222.774 214.004C222.031 214.648 221.337 215.391 220.693 216.184C220.891 215.094 220.941 213.954 220.842 212.716C220.743 211.576 220.743 210.436 220.495 209.396H220.842C223.666 209.396 226.044 207.265 226.292 204.441L227.035 197.455C226.738 197.356 226.391 197.207 226.094 197.059C226.094 197.059 217.225 193.689 222.923 191.014C225.053 190.023 226.391 189.676 227.927 188.834L230.157 167.132C230.157 167.033 230.157 166.934 230.157 166.835C230.702 166.537 231.148 166.141 231.594 165.596C233.229 163.614 234.17 160.592 234.765 158.164C235.26 156.083 236.499 153.209 234.17 151.822C232.139 150.633 228.869 150.732 226.589 150.682C224.261 150.682 222.675 150.979 221.189 151.475C217.126 152.714 215.392 156.975 214.648 161.087H197.505C196.762 156.975 195.028 152.714 190.915 151.475C189.379 151.029 187.794 150.682 185.415 150.682C183.136 150.682 179.817 150.633 177.736 151.822C175.357 153.209 176.596 156.132 177.141 158.164C177.736 160.592 178.727 163.614 180.362 165.596C181.105 166.488 182.046 166.983 183.087 167.479L185.267 188.834C185.515 188.982 185.762 189.081 185.96 189.181C187.249 189.775 188.487 190.171 190.271 191.014C194.136 192.847 191.262 194.978 189.032 196.167C187.992 196.712 187.1 197.059 187.1 197.059C186.803 197.207 186.456 197.356 186.109 197.455L186.852 204.441C187.15 207.166 189.379 209.247 192.104 209.396C192.055 209.594 192.005 209.792 192.005 209.99C191.857 210.882 191.758 211.774 191.758 212.716C191.758 213.657 191.857 214.598 192.005 215.49C189.776 212.914 186.307 209.346 182.789 205.283C180.163 202.608 178.627 200.527 176.893 197.653C173.276 196.315 170.502 194.433 168.074 191.46C165.795 188.685 164.06 185.415 162.772 182.046C159.651 173.821 161.286 164.506 162.227 156.033C162.97 149.047 164.952 141.764 168.768 135.818C181.997 115.256 197.505 110.549 197.505 110.549C204.541 107.13 214.45 109.508 214.45 109.508C215.986 111.886 217.77 114.067 219.405 116.098C222.972 120.557 226.837 124.818 230.801 128.931C235.706 133.985 240.909 139.187 246.755 143.349C247.102 143.646 248.787 146.768 250.124 166.29C250.323 168.519 250.471 170.402 250.62 172.087Z" fill="#00D9BA" fill-opacity="0.3" stroke="#00D9BA" stroke-width="2" stroke-miterlimit="10" stroke-linecap="round" stroke-linejoin="round"/>
<path d="M282.528 246.755C285.402 244.674 287.334 242.841 288.672 241.305" stroke="#A2A2CC" stroke-width="2" stroke-miterlimit="10" stroke-linecap="round" stroke-linejoin="round"/>
<path d="M302.645 222.032C304.973 221.14 307.451 220.694 310.077 220.694C320.779 220.694 329.549 228.721 330.837 239.027" stroke="#D6B218" stroke-width="2" stroke-miterlimit="10" stroke-linecap="round" stroke-linejoin="round"/>
<path d="M289.118 240.761C289.316 235.856 291.298 231.099 294.618 227.433C296.798 225.055 299.672 223.37 302.595 222.032" stroke="#D6B218" stroke-width="2" stroke-miterlimit="10" stroke-linecap="round" stroke-linejoin="round"/>
<path d="M291.051 250.373C289.812 247.697 289.118 244.725 289.118 241.603C289.118 241.306 289.118 241.008 289.118 240.761" stroke="#D6B218" stroke-width="2" stroke-miterlimit="10" stroke-linecap="round" stroke-linejoin="round"/>
<path d="M313.099 262.067C312.653 262.81 311.663 262.661 310.919 262.661C309.879 262.661 308.838 262.612 307.847 262.463C303.834 261.968 299.92 260.333 296.749 257.756C296.006 257.112 295.262 256.418 294.618 255.725" stroke="#D6B218" stroke-width="2" stroke-miterlimit="10" stroke-linecap="round" stroke-linejoin="round"/>
<path d="M290.158 248.143C294.816 247.549 299.473 245.914 303.685 243.932C307.896 241.95 311.86 239.324 315.328 236.153C317.112 234.518 318.797 232.684 320.283 230.752L321.869 228.572C322.463 227.68 323.058 226.689 323.652 225.698" stroke="#D6B218" stroke-width="2" stroke-miterlimit="10" stroke-linecap="round" stroke-linejoin="round"/>
<path d="M314.041 247.698C315.279 246.807 316.518 245.816 317.707 244.726C321.869 241.009 325.536 236.451 328.211 231.546" stroke="#D6B218" stroke-width="2" stroke-miterlimit="10" stroke-linecap="round" stroke-linejoin="round"/>
<path d="M295.361 256.567C295.361 256.567 302.297 255.179 310.324 250.225" stroke="#D6B218" stroke-width="2" stroke-miterlimit="10" stroke-linecap="round" stroke-linejoin="round"/>
<path d="M319.095 251.117C323.158 247.599 327.171 242.743 330.243 236.153" stroke="#D6B218" stroke-width="2" stroke-miterlimit="10" stroke-linecap="round" stroke-linejoin="round"/>
<path d="M300.861 260.432C300.861 260.432 305.617 259.689 311.662 256.319" stroke="#D6B218" stroke-width="2" stroke-miterlimit="10" stroke-linecap="round" stroke-linejoin="round"/>
<path d="M315.527 221.438C314.486 225.401 315.675 230.059 318.202 233.23" stroke="#D6B218" stroke-width="2" stroke-miterlimit="10" stroke-linecap="round" stroke-linejoin="round"/>
<path d="M310.027 220.694C308.095 225.798 309.185 231.991 312.059 236.5C312.406 236.995 312.752 237.54 313.099 237.986" stroke="#D6B218" stroke-width="2" stroke-miterlimit="10" stroke-linecap="round" stroke-linejoin="round"/>
<path d="M305.073 221.338C303.388 225.896 303.091 231.346 304.33 236.053C304.924 238.234 305.816 240.265 307.104 242.098" stroke="#D6B218" stroke-width="2" stroke-miterlimit="10" stroke-linecap="round" stroke-linejoin="round"/>
<path d="M294.37 227.78C297.492 227.78 301.009 228.523 303.636 230.258" stroke="#D6B218" stroke-width="2" stroke-miterlimit="10" stroke-linecap="round" stroke-linejoin="round"/>
<path d="M290.505 234.073C295.411 233.627 300.316 235.262 304.626 237.491" stroke="#D6B218" stroke-width="2" stroke-miterlimit="10" stroke-linecap="round" stroke-linejoin="round"/>
<path d="M289.118 241.009C293.776 240.513 298.929 241.851 302.942 244.279" stroke="#D6B218" stroke-width="2" stroke-miterlimit="10" stroke-linecap="round" stroke-linejoin="round"/>
<path d="M272.966 265.336C272.619 261.472 274.105 257.458 275.889 254.139C277.425 251.314 279.605 248.887 282.181 247.053C282.281 246.954 282.38 246.905 282.528 246.806" stroke="#A2A2CC" stroke-width="2" stroke-miterlimit="10" stroke-linecap="round" stroke-linejoin="round"/>
<path d="M274.6 272.619C273.758 270.34 273.213 267.863 272.965 265.336" stroke="#A2A2CC" stroke-width="2" stroke-miterlimit="10" stroke-linecap="round" stroke-linejoin="round"/>
<path d="M322.959 289.615C315.477 292.736 307.351 294.124 299.275 292.736C289.564 291.101 281.141 285.205 276.533 276.931" stroke="#A2A2CC" stroke-width="2" stroke-miterlimit="10" stroke-linecap="round" stroke-linejoin="round"/>
<path d="M347.783 264.048C347.981 266.079 347.634 268.111 346.742 269.994C346.742 269.994 353.877 276.633 350.706 278.318C347.535 280.002 340.747 277.772 340.747 277.772C340.499 277.673 338.368 279.953 338.121 280.151C334.9 282.925 331.333 285.403 327.518 287.434" stroke="#A2A2CC" stroke-width="2" stroke-miterlimit="10" stroke-linecap="round" stroke-linejoin="round"/>
<path d="M328.905 251.463C330.193 251.067 331.58 250.967 332.968 251.215C338.963 252.454 340.003 253.494 340.003 253.494C340.003 253.494 349.17 251.364 349.318 252.553C349.417 253.742 346.445 259.737 346.445 259.737C346.692 260.233 346.94 260.728 347.138 261.224" stroke="#A2A2CC" stroke-width="2" stroke-miterlimit="10" stroke-linecap="round" stroke-linejoin="round"/>
<path d="M321.67 256.02C322.909 254.831 325.684 252.403 328.954 251.462" stroke="#A2A2CC" stroke-width="2" stroke-miterlimit="10" stroke-linecap="round" stroke-linejoin="round"/>
<path d="M239.174 281.24C243.039 283.371 247.795 283.965 252.106 282.875C258.002 281.439 263.006 277.326 266.227 272.223C267.416 270.29 268.456 268.16 270.091 266.574C270.884 265.831 271.875 265.236 272.965 264.89" stroke="#A2A2CC" stroke-width="2" stroke-miterlimit="10" stroke-linecap="round" stroke-linejoin="round"/>
<path d="M246.854 268.457C246.755 268.309 246.606 268.11 246.507 267.962C244.971 265.782 243.188 263.503 240.561 262.809C236.994 261.867 233.179 264.692 232.287 268.259C231.494 271.381 232.535 274.7 234.467 277.277" stroke="#A2A2CC" stroke-width="2" stroke-miterlimit="10" stroke-linecap="round" stroke-linejoin="round"/>
<path d="M258.151 273.164C256.268 273.957 254.088 274.205 252.205 273.511C249.926 272.669 248.34 270.538 246.903 268.457" stroke="#A2A2CC" stroke-width="2" stroke-miterlimit="10" stroke-linecap="round" stroke-linejoin="round"/>
<path d="M273.214 261.273C271.579 261.174 269.349 261.818 268.358 262.462C266.871 263.453 265.881 265.038 264.939 266.574C263.8 268.358 262.511 270.092 260.926 271.43" stroke="#A2A2CC" stroke-width="2" stroke-miterlimit="10" stroke-linecap="round" stroke-linejoin="round"/>
<path d="M330.837 244.229C330.54 246.755 329.747 249.183 328.607 251.363" stroke="#D6B218" stroke-width="2" stroke-miterlimit="10" stroke-linecap="round" stroke-linejoin="round"/>
<path d="M330.986 241.652C330.986 242.544 330.936 243.386 330.837 244.229" stroke="#D6B218" stroke-width="2" stroke-miterlimit="10" stroke-linecap="round" stroke-linejoin="round"/>
<path d="M314.041 216.928C325.238 218.662 334.008 227.68 335.396 238.927" stroke="#7A79A1" stroke-width="2" stroke-miterlimit="10" stroke-linecap="round" stroke-linejoin="round"/>
<path d="M301.059 218.266C303.883 217.225 306.905 216.631 310.076 216.631" stroke="#7A79A1" stroke-width="2" stroke-miterlimit="10" stroke-linecap="round" stroke-linejoin="round"/>
<path d="M320.679 253.99C321.918 256.468 322.612 259.193 322.711 262.017C322.711 262.562 322.711 262.958 322.711 263.206C322.711 263.355 322.661 263.503 322.612 263.602" stroke="#A2A2CC" stroke-width="2" stroke-miterlimit="10" stroke-linecap="round" stroke-linejoin="round"/>
<path d="M312.752 260.282C312.405 258.597 311.91 256.962 311.365 255.377L310.77 253.593C310.572 252.949 310.424 252.305 310.374 251.611C310.275 250.917 310.423 250.174 310.82 249.53C311.216 248.886 311.811 248.44 312.554 248.192C313.248 247.945 313.991 247.895 314.734 247.994C315.428 248.143 316.072 248.391 316.666 248.787C318.5 250.026 319.689 252.007 320.729 253.94" stroke="#A2A2CC" stroke-width="2" stroke-miterlimit="10" stroke-linecap="round" stroke-linejoin="round"/>
<path d="M312.752 260.282C313.148 262.165 313.347 264.147 313.148 266.03C313 267.07 312.851 267.615 312.851 267.615" stroke="#A2A2CC" stroke-width="2" stroke-miterlimit="10" stroke-linecap="round" stroke-linejoin="round"/>
<path d="M282.627 250.025C283.073 251.561 282.925 253.345 282.677 254.931C282.528 256.219 282.132 257.458 281.537 258.647C281.141 259.39 280.695 260.084 280.2 260.678C280.001 260.876 279.853 261.025 279.754 261.124L279.605 261.273" stroke="#A2A2CC" stroke-width="2" stroke-miterlimit="10" stroke-linecap="round" stroke-linejoin="round"/>
<path d="M286.492 250.273C285.203 250.224 283.915 250.124 282.627 250.025" stroke="#A2A2CC" stroke-width="2" stroke-miterlimit="10" stroke-linecap="round" stroke-linejoin="round"/>
<path d="M305.518 249.729C300.117 250.323 294.667 250.521 289.217 250.373" stroke="#A2A2CC" stroke-width="2" stroke-miterlimit="10" stroke-linecap="round" stroke-linejoin="round"/>
<path d="M299.87 264.395C299.523 263.355 299.127 262.364 298.631 261.422C297.591 259.391 296.154 257.558 294.42 256.071L294.123 255.823H294.519C297.195 255.724 299.87 254.932 302.149 253.495C303.586 252.553 304.676 251.315 305.518 249.828" stroke="#A2A2CC" stroke-width="2" stroke-miterlimit="10" stroke-linecap="round" stroke-linejoin="round"/>
<path d="M300.712 270.241C300.762 269.299 300.712 268.309 300.613 267.367C300.464 266.327 300.266 265.336 299.919 264.345" stroke="#A2A2CC" stroke-width="2" stroke-miterlimit="10" stroke-linecap="round" stroke-linejoin="round"/>
<path d="M289.613 281.29C290.456 281.24 291.298 281.141 292.14 280.943C294.419 280.299 296.401 279.011 297.888 277.178C298.978 275.889 299.771 274.403 300.266 272.817" stroke="#A2A2CC" stroke-width="2" stroke-miterlimit="10" stroke-linecap="round" stroke-linejoin="round"/>
<path d="M347.336 253.147C347.98 253.196 345.8 255.426 344.908 256.417C344.611 256.863 344.115 257.16 343.62 257.259C343.174 257.259 342.778 257.111 342.431 256.813C341.539 256.219 340.746 255.476 340.102 254.633L339.953 254.435C339.904 254.435 345.949 253.097 347.336 253.147Z" fill="#43435B"/>
<path d="M344.958 271.381C346.444 272.421 347.931 273.462 348.922 274.948C349.268 275.444 349.516 276.137 349.219 276.633C348.922 276.98 348.476 277.178 348.03 277.227C345.8 277.525 343.521 277.178 341.539 276.187C341.688 275.741 341.886 275.295 342.084 274.849C342.728 273.511 343.818 272.223 344.958 271.381Z" fill="#43435B"/>
<path d="M310.721 249.729C310.721 249.729 312.108 250.918 312.752 252.751" stroke="#A2A2CC" stroke-width="2" stroke-miterlimit="10" stroke-linecap="round" stroke-linejoin="round"/>
<path d="M312.256 248.54C312.256 248.54 313.644 249.729 314.288 251.562" stroke="#A2A2CC" stroke-width="2" stroke-miterlimit="10" stroke-linecap="round" stroke-linejoin="round"/>
<path d="M314.238 247.994C314.238 247.994 315.626 249.183 316.27 251.017" stroke="#A2A2CC" stroke-width="2" stroke-miterlimit="10" stroke-linecap="round" stroke-linejoin="round"/>
<path d="M326.823 261.174C328.111 264.89 328.607 269.052 328.062 272.917C327.963 273.61 327.814 274.304 327.666 274.948" stroke="#A2A2CC" stroke-width="2" stroke-miterlimit="10" stroke-linecap="round" stroke-linejoin="round"/>
<path d="M326.823 261.174C326.823 265.039 325.932 269.052 324.148 272.52C323.801 273.164 323.405 273.808 323.008 274.453" stroke="#A2A2CC" stroke-width="2" stroke-miterlimit="10" stroke-linecap="round" stroke-linejoin="round"/>
<path d="M326.675 261.174C326.675 261.174 328.26 268.656 324.098 279.16" stroke="#A2A2CC" stroke-width="2" stroke-miterlimit="10" stroke-linecap="round" stroke-linejoin="round"/>
<path d="M328.062 242.643C329.053 246.21 328.806 250.025 328.013 253.593C327.815 254.534 327.567 255.525 327.27 256.417" stroke="#A2A2CC" stroke-width="2" stroke-miterlimit="10" stroke-linecap="round" stroke-linejoin="round"/>
<path d="M327.121 256.417C327.121 256.417 328.013 252.156 326.675 245.566" stroke="#A2A2CC" stroke-width="2" stroke-miterlimit="10" stroke-linecap="round" stroke-linejoin="round"/>
<path d="M331.679 256.468C332.363 256.468 332.918 255.913 332.918 255.229C332.918 254.545 332.363 253.99 331.679 253.99C330.995 253.99 330.44 254.545 330.44 255.229C330.44 255.913 330.995 256.468 331.679 256.468Z" fill="#D6B218"/>
<path d="M330.986 264.691C331.67 264.691 332.224 264.137 332.224 263.453C332.224 262.768 331.67 262.214 330.986 262.214C330.302 262.214 329.747 262.768 329.747 263.453C329.747 264.137 330.302 264.691 330.986 264.691Z" fill="#D6B218"/>
<path d="M379.246 249.876C384.498 251.461 389.106 253.245 393.02 255.178C410.906 264.096 413.582 275.987 413.582 282.33C413.582 287.879 411.501 297.739 398.916 306.063" stroke="#7A79A1" stroke-width="2" stroke-miterlimit="10" stroke-linecap="round" stroke-linejoin="round"/>
<path d="M106.932 151.475C109.112 145.083 111.441 138.741 114.364 132.647C114.959 131.408 115.553 130.17 116.198 128.98" stroke="#A2A2CC" stroke-width="2" stroke-miterlimit="10" stroke-linecap="round" stroke-linejoin="round"/>
<path d="M68.7316 155.737C70.763 160.147 76.1142 162.079 80.5734 160.097C85.0823 158.115 87.0642 152.913 85.0327 148.503C83.0013 144.093 71.9522 129.923 67.4434 131.905C62.9345 133.887 66.7001 151.327 68.7316 155.737Z" stroke="#FF6C7D" stroke-width="2" stroke-miterlimit="10" stroke-linecap="round" stroke-linejoin="round"/>
<path d="M56.7406 151.426C58.772 155.836 67.6906 156.182 76.6587 152.169C85.6268 148.205 91.1761 141.417 89.1446 137.008C87.1132 132.598 63.5286 123.977 63.5286 123.977C63.5286 123.977 54.6596 147.016 56.7406 151.426Z" stroke="#FF6C7D" stroke-width="2" stroke-miterlimit="10" stroke-linecap="round" stroke-linejoin="round"/>
<path d="M76.4115 152.318L69.5244 145.034" stroke="#FF6C7D" stroke-width="2" stroke-miterlimit="10" stroke-linecap="round" stroke-linejoin="round"/>
<path d="M76.4116 152.318L76.5107 141.863" stroke="#FF6C7D" stroke-width="2" stroke-miterlimit="10" stroke-linecap="round" stroke-linejoin="round"/>
<path d="M80.2266 160.196C82.2085 163.615 83.8435 167.232 85.3795 170.849C87.4605 175.705 89.2442 180.709 90.7306 185.763" stroke="#A2A2CC" stroke-width="2" stroke-miterlimit="10" stroke-linecap="round" stroke-linejoin="round"/>
<path d="M92.9108 195.177C92.3658 192.006 91.6226 188.835 90.7803 185.812" stroke="#A2A2CC" stroke-width="2" stroke-miterlimit="10" stroke-linecap="round" stroke-linejoin="round"/>
<path d="M397.33 86.2216V99.8472C397.33 104.653 393.416 108.617 388.561 108.617H327.815C323.009 108.617 319.045 104.703 319.045 99.8472V9.7699C319.095 4.91425 323.009 1 327.815 1H333.811H345.206H388.561C393.367 1 397.33 4.91425 397.33 9.7699V77.1545V86.2216V86.2216Z" stroke="#7A79A1" stroke-width="2" stroke-miterlimit="10" stroke-linecap="round" stroke-linejoin="round"/>
<path d="M331.482 60.0109V96.2301H384.944V13.3867H331.482V45.7412V60.0109Z" stroke="#7A79A1" stroke-width="2" stroke-miterlimit="10" stroke-linecap="round" stroke-linejoin="round"/>
<path d="M331.482 13.3867L384.25 56.9885L331.482 96.2301" stroke="#7A79A1" stroke-width="2" stroke-miterlimit="10" stroke-linecap="round" stroke-linejoin="round"/>
<path d="M93.4551 92.5141V102.325C93.4551 105.793 90.6309 108.617 87.1626 108.617H43.5113C40.043 108.617 37.2188 105.793 37.2188 102.325V37.566C37.2188 34.0976 40.043 31.2734 43.5113 31.2734H47.8219H55.9972H87.1626C90.6309 31.2734 93.4551 34.0976 93.4551 37.566V85.9738V92.5141Z" stroke="#7A79A1" stroke-width="2" stroke-miterlimit="10" stroke-linecap="round" stroke-linejoin="round"/>
<path d="M46.1382 73.6855V99.6979H84.5375V40.1914H46.1382V63.4292V73.6855Z" stroke="#7A79A1" stroke-width="2" stroke-miterlimit="10" stroke-linecap="round" stroke-linejoin="round"/>
<path d="M46.1382 40.1914L84.5375 69.9694L46.1382 99.6979" stroke="#7A79A1" stroke-width="2" stroke-miterlimit="10" stroke-linecap="round" stroke-linejoin="round"/>
<path d="M333.612 173.128H402.186" stroke="#C3C3E5" stroke-width="2" stroke-miterlimit="10" stroke-linecap="round" stroke-linejoin="round"/>
<path d="M296.006 184.722H389.353" stroke="#C3C3E5" stroke-width="2" stroke-miterlimit="10" stroke-linecap="round" stroke-linejoin="round"/>
<path d="M407.934 173.128H424.879" stroke="#C3C3E5" stroke-width="2" stroke-miterlimit="10" stroke-linecap="round" stroke-linejoin="round"/>
<path d="M299.87 173.128H328.558" stroke="#C3C3E5" stroke-width="2" stroke-miterlimit="10" stroke-linecap="round" stroke-linejoin="round"/>
<path d="M67.9878 172.235H78.6405" stroke="#C3C3E5" stroke-width="2" stroke-miterlimit="10" stroke-linecap="round" stroke-linejoin="round"/>
<path d="M33.7017 183.781H80.2267" stroke="#C3C3E5" stroke-width="2" stroke-miterlimit="10" stroke-linecap="round" stroke-linejoin="round"/>
<path d="M1 172.235H62.4884" stroke="#C3C3E5" stroke-width="2" stroke-miterlimit="10" stroke-linecap="round" stroke-linejoin="round"/>
<path d="M66.9976 215.491L67.9885 223.022L74.4792 272.322C74.4792 276.087 77.7989 279.159 81.8123 279.159H84.2896H95.1405H115.306C119.369 279.159 122.639 276.087 122.639 272.322L125.711 246.309L126.355 240.908L129.626 213.112" stroke="#A2A2CC" stroke-width="2" stroke-miterlimit="10" stroke-linecap="round" stroke-linejoin="round"/>
<path d="M219.356 288.227C226.441 291.844 234.171 294.024 241.95 295.51C241.999 295.51 242.049 295.51 242.049 295.51C250.174 297.046 258.399 298.086 266.624 298.83C274.899 299.573 283.223 299.969 291.547 300.118C294.173 300.168 296.799 300.217 299.375 300.217C312.753 300.217 325.338 299.573 336.585 298.384" stroke="#7A79A1" stroke-width="2" stroke-miterlimit="10" stroke-linecap="round" stroke-linejoin="round"/>
<path d="M106.933 151.524L105.248 157.619C103.861 163.317 102.87 169.362 102.87 175.258C102.87 184.028 105.595 189.775 108.865 195.225" stroke="#A2A2CC" stroke-width="2" stroke-miterlimit="10" stroke-linecap="round" stroke-linejoin="round"/>
<path d="M122.887 195.177C117.387 183.484 113.324 170.601 111.144 156.827" stroke="#EDEDF9" stroke-width="2" stroke-miterlimit="10" stroke-linecap="round" stroke-linejoin="round"/>
<path d="M190.866 253.742C179.718 251.413 169.214 246.607 159.899 240.116C157.471 238.432 155.093 236.698 152.813 234.864" stroke="#EDEDF9" stroke-width="2" stroke-miterlimit="10" stroke-linecap="round" stroke-linejoin="round"/>
<path d="M258.796 237.193C243.832 248.787 226.193 255.476 207.316 255.476C203.897 255.476 200.528 255.278 197.208 254.832" stroke="#EDEDF9" stroke-width="2" stroke-miterlimit="10" stroke-linecap="round" stroke-linejoin="round"/>
<path d="M304.677 147.116C303.636 158.512 301.258 169.759 297.591 180.561C290.754 200.727 279.209 219.505 263.106 233.577C261.669 234.815 260.233 236.004 258.746 237.144" stroke="#EDEDF9" stroke-width="2" stroke-miterlimit="10" stroke-linecap="round" stroke-linejoin="round"/>
<path d="M174.168 17.1024C184.523 12.4449 195.672 9.91797 207.266 9.91797C221.833 9.91797 236.697 13.8322 249.034 21.6112C255.376 25.6245 261.371 30.1333 266.871 35.2367C272.619 40.6374 277.673 46.7317 282.082 53.272C285.798 58.8213 289.118 64.6184 291.942 70.6632C301.753 91.6218 306.063 115.058 305.271 138.147C305.171 141.12 304.973 144.093 304.676 147.065" stroke="#EDEDF9" stroke-width="2" stroke-miterlimit="10" stroke-linecap="round" stroke-linejoin="round"/>
<path d="M130.963 55.6013C132.102 53.8176 133.292 52.0834 134.53 50.3988L138.098 45.6918C144.588 37.6156 151.921 30.6789 159.998 25.0801" stroke="#EDEDF9" stroke-width="2" stroke-miterlimit="10" stroke-linecap="round" stroke-linejoin="round"/>
<path d="M66.9971 215.491L65.2134 201.965C65.2134 198.199 68.5331 195.127 72.5464 195.127H123.63C127.693 195.127 130.963 198.199 130.963 201.965L129.625 213.063" stroke="#A2A2CC" stroke-width="2" stroke-miterlimit="10" stroke-linecap="round" stroke-linejoin="round"/>
<path d="M128.09 124.719C126.059 129.129 120.707 131.062 116.248 129.08C111.739 127.098 109.757 121.895 111.789 117.486C113.82 113.076 124.869 98.9052 129.378 100.887C133.837 102.869 130.121 120.31 128.09 124.719Z" stroke="#FF6C7D" stroke-width="2" stroke-miterlimit="10" stroke-linecap="round" stroke-linejoin="round"/>
<path d="M140.08 120.409C138.048 124.819 129.13 125.166 120.162 121.152C111.194 117.189 105.644 110.401 107.676 105.991C109.707 101.581 133.292 92.96 133.292 92.96C133.292 92.96 142.111 116 140.08 120.409Z" stroke="#FF6C7D" stroke-width="2" stroke-miterlimit="10" stroke-linecap="round" stroke-linejoin="round"/>
<path d="M120.36 121.301L127.297 114.018" stroke="#FF6C7D" stroke-width="2" stroke-miterlimit="10" stroke-linecap="round" stroke-linejoin="round"/>
<path d="M120.36 121.301L120.31 110.847" stroke="#FF6C7D" stroke-width="2" stroke-miterlimit="10" stroke-linecap="round" stroke-linejoin="round"/>
<path opacity="0.5" d="M72.5962 221.981L78.7401 268.655C78.7401 271.727 81.4652 274.254 84.7849 274.254H86.8163H95.6853H112.234C115.554 274.254 118.279 271.727 118.279 268.655C101.036 265.484 86.519 253.989 79.5328 237.936L72.5962 221.981Z" fill="#7A79A1"/>
<path d="M185.316 188.834L183.136 167.48L183.087 167.133C182.938 165.498 183.483 163.962 184.474 162.872C185.316 161.98 186.456 161.336 187.744 161.137C187.992 161.088 188.289 161.088 188.586 161.088H224.707C225.995 161.088 227.184 161.534 228.125 162.277C229.463 163.318 230.305 165.002 230.206 166.835C230.206 166.934 230.206 167.034 230.206 167.133L227.977 188.834C226.441 189.677 225.103 190.024 222.972 191.015C217.274 193.69 226.143 197.059 226.143 197.059C226.441 197.208 226.788 197.307 227.085 197.456L226.342 204.442C226.044 207.266 223.666 209.397 220.891 209.397H220.495C220.495 209.298 220.445 209.198 220.445 209.149C219.504 205.235 217.126 202.46 214.302 202.46C211.428 202.46 209 205.383 208.108 209.446H204.491C203.599 205.383 201.172 202.46 198.298 202.46C195.424 202.46 192.996 205.383 192.104 209.446C189.379 209.347 187.15 207.217 186.852 204.491L186.109 197.505" stroke="#7A79A1" stroke-width="2" stroke-miterlimit="10" stroke-linecap="round" stroke-linejoin="round"/>
<path d="M204.838 212.766C204.838 218.464 201.915 223.072 198.298 223.072C195.325 223.072 192.798 219.901 192.006 215.54C191.857 214.649 191.758 213.757 191.758 212.766C191.758 211.824 191.857 210.883 192.006 210.041C192.055 209.843 192.055 209.644 192.105 209.446C192.997 205.383 195.424 202.46 198.298 202.46C201.172 202.46 203.6 205.383 204.492 209.446C204.591 209.991 204.69 210.536 204.739 211.131C204.838 211.676 204.838 212.221 204.838 212.766Z" fill="#00D9BA" fill-opacity="0.3" stroke="#00D9BA" stroke-width="2" stroke-miterlimit="10" stroke-linecap="round" stroke-linejoin="round"/>
<path d="M220.693 216.185C219.95 220.247 217.274 223.072 214.302 223.022C210.685 222.973 207.761 218.414 207.761 212.716C207.761 212.171 207.811 211.577 207.86 211.081C207.91 210.536 208.009 209.942 208.108 209.446C209 205.383 211.428 202.46 214.302 202.46C217.126 202.46 219.504 205.235 220.445 209.149C220.445 209.248 220.495 209.347 220.495 209.397C220.743 210.437 220.743 211.577 220.842 212.716C220.941 213.955 220.891 215.144 220.693 216.185Z" fill="#00D9BA" fill-opacity="0.3" stroke="#00D9BA" stroke-width="2" stroke-miterlimit="10" stroke-linecap="round" stroke-linejoin="round"/>
<path d="M237.738 179.568C232.436 185.564 230.009 187.694 227.928 188.834C226.392 189.676 225.054 190.023 222.923 191.063C217.225 193.739 226.094 197.108 226.094 197.108C226.392 197.257 226.738 197.405 227.036 197.505C231.148 198.991 235.508 197.802 236.252 197.604C236.301 197.604 236.351 197.554 236.351 197.554" stroke="#00D9BA" stroke-width="2" stroke-miterlimit="10" stroke-linecap="round" stroke-linejoin="round"/>
<path d="M175.506 179.568C180.808 185.564 183.236 187.645 185.317 188.834C185.564 188.982 185.812 189.081 186.01 189.181C187.299 189.775 188.537 190.172 190.321 191.014C194.186 192.847 191.312 194.978 189.082 196.167C188.042 196.712 187.15 197.059 187.15 197.059C186.853 197.207 186.506 197.356 186.209 197.455C181.7 199.041 176.943 197.505 176.943 197.505" stroke="#00D9BA" stroke-width="2" stroke-miterlimit="10" stroke-linecap="round" stroke-linejoin="round"/>
<path opacity="0.5" d="M141.071 91.0284C140.575 91.4743 139.783 90.9788 139.981 90.3347C144.341 77.7992 150.98 65.8087 160.295 56.0479C164.606 51.539 169.412 47.4761 174.763 44.1069C180.659 40.3413 187.101 37.5171 193.988 36.0307C201.122 34.4947 208.604 34.247 215.838 35.2379C222.626 36.1298 229.265 38.7558 235.211 42.0755C240.562 45.0483 245.467 48.7148 249.877 52.9264C252.355 55.2551 254.634 57.782 256.814 60.408C259.985 64.2727 262.908 68.4843 265.435 72.9436C265.732 73.4886 265.138 74.1327 264.543 73.8354L244.625 64.025C215.838 49.8544 181.056 54.6605 157.471 76.1146L141.071 91.0284Z" fill="#7A79A1"/>
<path opacity="0.5" d="M250.769 231.891C252.404 231.495 253.296 233.675 251.908 234.567C238.332 243.287 220.148 248.44 206.919 248.44C203.798 248.44 200.676 248.242 197.604 247.895L191.758 247.003C181.501 245.021 171.79 240.959 163.218 235.409L163.169 235.36C161.781 234.468 162.723 232.288 164.308 232.684L182.691 236.945C198.001 240.513 213.856 240.513 229.166 236.945L250.769 231.891Z" fill="#7A79A1"/>
</svg>
