<svg width="14" height="14" viewBox="0 0 16 16" fill="none" xmlns="http://www.w3.org/2000/svg">
<circle cx="8" cy="8" r="7.5" fill="#C3C3E5" stroke="#C3C3E5"/>
<path d="M9.68051 4.56692C8.92461 3.81103 7.70678 3.81103 6.95088 4.56692C6.57293 4.94487 6.36296 5.4908 6.40496 6.03673C6.40496 6.28869 6.61493 6.45667 6.8249 6.41467C7.07687 6.41467 7.24484 6.2047 7.20285 5.99473C7.20285 5.70077 7.28683 5.40681 7.5388 5.15484C7.95874 4.7349 8.67265 4.7349 9.09259 5.15484C9.51254 5.57479 9.51254 6.28869 9.09259 6.70863C8.88262 6.91861 8.58866 7.04459 8.2947 7.04459C8.25271 7.04459 8.2527 7.04459 8.21071 7.04459H8.16871C8.00073 7.08658 7.87476 7.25456 7.87476 7.42254V8.68237C7.87476 8.93434 8.04274 9.10231 8.2947 9.10231C8.54667 9.10231 8.71465 8.93434 8.71465 8.68237V7.84248C9.0926 7.75849 9.47054 7.59052 9.72251 7.29656C10.4364 6.54066 10.4364 5.32282 9.68051 4.56692Z" fill="white"/>
<path d="M8.25297 10.6562C7.87502 10.6562 7.58105 10.9502 7.58105 11.3282C7.58105 11.7061 7.87502 12.0001 8.25297 12.0001C8.63092 12.0001 8.92488 11.7061 8.92488 11.3282C8.92488 10.9502 8.63092 10.6562 8.25297 10.6562Z" fill="white"/>
</svg>
