<svg width="1499" height="1019" viewBox="0 0 1499 1019" fill="none" xmlns="http://www.w3.org/2000/svg">
<path d="M128.084 802.092C128.084 795.642 122.859 790.414 116.413 790.414C109.967 790.414 104.742 795.642 104.742 802.092C104.742 808.541 109.967 813.77 116.413 813.77C122.859 813.77 128.084 808.541 128.084 802.092Z" stroke="#BCECE3" stroke-width="2" stroke-miterlimit="10" stroke-linecap="round" stroke-linejoin="round"/>
<path d="M128.084 350.034C128.084 343.585 122.859 338.356 116.413 338.356C109.967 338.356 104.742 343.585 104.742 350.034C104.742 356.484 109.967 361.712 116.413 361.712C122.859 361.712 128.084 356.484 128.084 350.034Z" stroke="#C3C3E5" stroke-width="2" stroke-miterlimit="10" stroke-linecap="round" stroke-linejoin="round"/>
<path d="M24.342 576.063C24.342 569.614 19.1167 564.385 12.671 564.385C6.22528 564.385 1 569.614 1 576.063C1 582.512 6.22528 587.741 12.671 587.741C19.1167 587.741 24.342 582.512 24.342 576.063Z" stroke="#C3C3E5" stroke-width="2" stroke-miterlimit="10" stroke-linecap="round" stroke-linejoin="round"/>
<path d="M252.834 1006.32C252.834 999.873 247.609 994.645 241.163 994.645C234.717 994.645 229.492 999.873 229.492 1006.32C229.492 1012.77 234.717 1018 241.163 1018C247.609 1018 252.834 1012.77 252.834 1006.32Z" stroke="#C3C3E5" stroke-width="2" stroke-miterlimit="10" stroke-linecap="round" stroke-linejoin="round"/>
<path d="M591.813 928.471C591.813 922.021 586.587 916.793 580.142 916.793C573.696 916.793 568.471 922.021 568.471 928.471C568.471 934.92 573.696 940.149 580.142 940.149C586.587 940.149 591.813 934.92 591.813 928.471Z" stroke="#EDEDF9" stroke-width="2" stroke-miterlimit="10" stroke-linecap="round" stroke-linejoin="round"/>
<path d="M478.733 689.207C478.733 682.758 473.507 677.529 467.062 677.529C460.616 677.529 455.391 682.758 455.391 689.207C455.391 695.657 460.616 700.885 467.062 700.885C473.507 700.885 478.733 695.657 478.733 689.207Z" stroke="#EDEDF9" stroke-width="2" stroke-miterlimit="10" stroke-linecap="round" stroke-linejoin="round"/>
<path d="M762.467 451.76C762.467 445.311 757.242 440.082 750.796 440.082C744.35 440.082 739.125 445.311 739.125 451.76C739.125 458.21 744.35 463.438 750.796 463.438C757.242 463.438 762.467 458.21 762.467 451.76Z" stroke="#C3C3E5" stroke-width="2" stroke-miterlimit="10" stroke-linecap="round" stroke-linejoin="round"/>
<path d="M930.53 1006.32C930.53 999.873 925.304 994.645 918.859 994.645C912.413 994.645 907.188 999.873 907.188 1006.32C907.188 1012.77 912.413 1018 918.859 1018C925.304 1018 930.53 1012.77 930.53 1006.32Z" stroke="#C3C3E5" stroke-width="2" stroke-miterlimit="10" stroke-linecap="round" stroke-linejoin="round"/>
<path d="M24.342 237.149C24.342 230.7 19.1167 225.472 12.671 225.472C6.22528 225.472 1 230.7 1 237.149C1 243.599 6.22528 248.827 12.671 248.827C19.1167 248.827 24.342 243.599 24.342 237.149Z" stroke="#00D9BA" stroke-width="2" stroke-miterlimit="10" stroke-linecap="round" stroke-linejoin="round"/>
<path d="M365.912 700.106C365.912 693.657 360.687 688.429 354.241 688.429C347.796 688.429 342.57 693.657 342.57 700.106C342.57 706.556 347.796 711.784 354.241 711.784C360.687 711.784 365.912 706.556 365.912 700.106Z" stroke="#00D9BA" stroke-width="2" stroke-miterlimit="10" stroke-linecap="round" stroke-linejoin="round"/>
<path d="M241.162 12.6778C241.162 6.22835 235.937 1.00006 229.491 1.00006C223.046 1.00006 217.82 6.22835 217.82 12.6778C217.82 19.1272 223.046 24.3555 229.491 24.3555C235.937 24.3555 241.162 19.1272 241.162 12.6778Z" stroke="#BCECE3" stroke-width="2" stroke-miterlimit="10" stroke-linecap="round" stroke-linejoin="round"/>
<path d="M478.733 247.789C478.733 241.34 473.507 236.112 467.062 236.112C460.616 236.112 455.391 241.34 455.391 247.789C455.391 254.239 460.616 259.467 467.062 259.467C473.507 259.467 478.733 254.239 478.733 247.789Z" stroke="#BCECE3" stroke-width="2" stroke-miterlimit="10" stroke-linecap="round" stroke-linejoin="round"/>
<path d="M365.912 223.655C365.912 217.206 360.687 211.978 354.241 211.978C347.796 211.978 342.57 217.206 342.57 223.655C342.57 230.105 347.796 235.333 354.241 235.333C360.687 235.333 365.912 230.105 365.912 223.655Z" stroke="#C3C3E5" stroke-width="2" stroke-miterlimit="10" stroke-linecap="round" stroke-linejoin="round"/>
<path d="M588.18 576.063C588.18 569.614 582.955 564.385 576.509 564.385C570.063 564.385 564.838 569.614 564.838 576.063C564.838 582.512 570.063 587.741 576.509 587.741C582.955 587.741 588.18 582.512 588.18 576.063Z" stroke="#BCECE3" stroke-width="2" stroke-miterlimit="10" stroke-linecap="round" stroke-linejoin="round"/>
<path d="M478.733 1006.32C478.733 999.873 473.507 994.645 467.062 994.645C460.616 994.645 455.391 999.873 455.391 1006.32C455.391 1012.77 460.616 1018 467.062 1018C473.507 1018 478.733 1012.77 478.733 1006.32Z" stroke="#00D9BA" stroke-width="2" stroke-miterlimit="10" stroke-linecap="round" stroke-linejoin="round"/>
<path d="M365.912 928.471C365.912 922.021 360.687 916.793 354.241 916.793C347.796 916.793 342.57 922.021 342.57 928.471C342.57 934.92 347.796 940.149 354.241 940.149C360.687 940.149 365.912 934.92 365.912 928.471Z" stroke="#BCECE3" stroke-width="2" stroke-miterlimit="10" stroke-linecap="round" stroke-linejoin="round"/>
<path d="M1156.69 928.471C1156.69 922.021 1151.46 916.793 1145.02 916.793C1138.57 916.793 1133.35 922.021 1133.35 928.471C1133.35 934.92 1138.57 940.149 1145.02 940.149C1151.46 940.149 1156.69 934.92 1156.69 928.471Z" stroke="#00D9BA" stroke-width="2" stroke-miterlimit="10" stroke-linecap="round" stroke-linejoin="round"/>
<path d="M1281.44 802.092C1281.44 795.642 1276.21 790.414 1269.77 790.414C1263.32 790.414 1258.1 795.642 1258.1 802.092C1258.1 808.541 1263.32 813.77 1269.77 813.77C1276.21 813.77 1281.44 808.541 1281.44 802.092Z" stroke="#00D9BA" stroke-width="2" stroke-miterlimit="10" stroke-linecap="round" stroke-linejoin="round"/>
<path d="M1394.26 576.063C1394.26 569.614 1389.03 564.385 1382.59 564.385C1376.14 564.385 1370.92 569.614 1370.92 576.063C1370.92 582.512 1376.14 587.741 1382.59 587.741C1389.03 587.741 1394.26 582.512 1394.26 576.063Z" stroke="#BCECE3" stroke-width="2" stroke-miterlimit="10" stroke-linecap="round" stroke-linejoin="round"/>
<path d="M1498 689.207C1498 682.758 1492.77 677.529 1486.33 677.529C1479.88 677.529 1474.66 682.758 1474.66 689.207C1474.66 695.657 1479.88 700.885 1486.33 700.885C1492.77 700.885 1498 695.657 1498 689.207Z" stroke="#C3C3E5" stroke-width="2" stroke-miterlimit="10" stroke-linecap="round" stroke-linejoin="round"/>
<path d="M1031.94 237.15C1031.94 230.7 1026.71 225.472 1020.27 225.472C1013.82 225.472 1008.6 230.7 1008.6 237.15C1008.6 243.599 1013.82 248.827 1020.27 248.827C1026.71 248.827 1031.94 243.599 1031.94 237.15Z" stroke="#C3C3E5" stroke-width="2" stroke-miterlimit="10" stroke-linecap="round" stroke-linejoin="round"/>
<path d="M1498 350.294C1498 343.844 1492.77 338.616 1486.33 338.616C1479.88 338.616 1474.66 343.844 1474.66 350.294C1474.66 356.743 1479.88 361.971 1486.33 361.971C1492.77 361.971 1498 356.743 1498 350.294Z" stroke="#00D9BA" stroke-width="2" stroke-miterlimit="10" stroke-linecap="round" stroke-linejoin="round"/>
<path d="M354.242 915.236L354.242 831.675C354.242 815.327 341.015 802.351 324.935 802.351L259.577 802.351L222.749 802.351L128.084 802.351" stroke="#BCECE3" stroke-width="2" stroke-miterlimit="10" stroke-linecap="round" stroke-linejoin="round"/>
<path d="M354.243 689.207L354.243 605.647C354.243 589.298 367.47 576.323 383.55 576.323L437.755 576.323C454.095 576.323 467.062 563.088 467.062 546.998L467.062 492.762C467.062 476.413 453.835 463.438 437.755 463.438L270.73 463.438C254.391 463.438 241.423 450.203 241.423 434.114L241.423 368.978L241.423 332.128L241.423 266.993C241.423 250.644 228.196 237.669 212.116 237.669L24.8613 237.669" stroke="#00D9BA" stroke-width="2" stroke-miterlimit="10" stroke-linecap="round" stroke-linejoin="round"/>
<path d="M598.555 802.092L674.546 802.092L692.96 802.092L711.374 802.092L776.473 802.092C792.812 802.092 805.78 788.857 805.78 772.768L805.78 707.632L805.78 670.782L805.78 605.647C805.78 589.298 819.007 576.323 835.087 576.323L889.292 576.323C905.632 576.323 918.599 563.088 918.599 546.998L918.599 492.762C918.599 476.413 931.827 463.438 947.907 463.438L1002.11 463.438C1018.45 463.438 1031.42 450.203 1031.42 434.114L1031.42 380.137C1031.42 363.788 1044.65 350.813 1060.73 350.813L1125.82 350.813L1162.65 350.813L1473.88 350.813" stroke="#00D9BA" stroke-width="2" stroke-miterlimit="10" stroke-linecap="round" stroke-linejoin="round"/>
<path d="M467.062 993.088L467.063 831.675C467.063 815.327 480.29 802.351 496.37 802.351L561.468 802.351" stroke="#00D9BA" stroke-width="2" stroke-miterlimit="10" stroke-linecap="round" stroke-linejoin="round"/>
<path d="M587.662 576.063L663.653 576.063C679.993 576.063 692.96 589.298 692.96 605.387L692.96 783.667" stroke="#BCECE3" stroke-width="2" stroke-miterlimit="10" stroke-linecap="round" stroke-linejoin="round"/>
<path d="M1370.92 576.063L1276.25 576.063" stroke="#BCECE3" stroke-width="2" stroke-miterlimit="10" stroke-linecap="round" stroke-linejoin="round"/>
<path d="M692.961 820.517L692.961 885.912C692.961 902.261 706.188 915.236 722.268 915.236L1002.37 915.236C1018.71 915.236 1031.68 902.001 1031.68 885.912L1031.68 718.791C1031.68 702.442 1044.91 689.467 1060.99 689.467L1115.45 689.467C1131.79 689.467 1144.76 676.232 1144.76 660.143L1144.76 605.906C1144.76 589.557 1157.99 576.582 1174.07 576.582L1239.16 576.582" stroke="#BCECE3" stroke-width="2" stroke-miterlimit="10" stroke-linecap="round" stroke-linejoin="round"/>
<path d="M467.061 236.112L467.061 155.406C467.061 139.057 453.834 126.081 437.754 126.081L383.549 126.081C367.209 126.081 354.242 112.847 354.242 96.7575L354.242 42.5209C354.242 26.1721 341.014 13.1968 324.934 13.1968L241.422 13.1968" stroke="#BCECE3" stroke-width="2" stroke-miterlimit="10" stroke-linecap="round" stroke-linejoin="round"/>
<path d="M1145.02 915.236L1145.02 831.675C1145.02 815.327 1158.24 802.351 1174.32 802.351L1257.84 802.351" stroke="#00D9BA" stroke-width="2" stroke-miterlimit="10" stroke-linecap="round" stroke-linejoin="round"/>
<path d="M24.6016 576.063L211.856 576.063C228.196 576.063 241.163 589.038 241.163 605.128L241.163 783.667" stroke="#C3C3E5" stroke-width="2" stroke-miterlimit="10" stroke-linecap="round" stroke-linejoin="round"/>
<path d="M241.162 820.517L241.162 994.385" stroke="#C3C3E5" stroke-width="2" stroke-miterlimit="10" stroke-linecap="round" stroke-linejoin="round"/>
<path d="M580.141 915.236L580.141 820.517L580.141 783.667L580.141 718.531C580.141 702.182 566.914 689.207 550.834 689.207L478.992 689.207" stroke="#EDEDF9" stroke-width="2" stroke-miterlimit="10" stroke-linecap="round" stroke-linejoin="round"/>
<path d="M787.625 689.207L780.104 689.207C763.765 689.207 750.797 675.972 750.797 659.883L750.797 463.178" stroke="#C3C3E5" stroke-width="2" stroke-miterlimit="10" stroke-linecap="round" stroke-linejoin="round"/>
<path d="M824.453 689.207L889.551 689.207C905.891 689.207 918.859 702.442 918.859 718.531L918.859 994.385" stroke="#C3C3E5" stroke-width="2" stroke-miterlimit="10" stroke-linecap="round" stroke-linejoin="round"/>
<path d="M259.578 350.034L324.676 350.034C341.016 350.034 353.984 336.799 353.984 320.71L353.984 237.149" stroke="#C3C3E5" stroke-width="2" stroke-miterlimit="10" stroke-linecap="round" stroke-linejoin="round"/>
<path d="M222.749 350.034L128.344 350.034" stroke="#C3C3E5" stroke-width="2" stroke-miterlimit="10" stroke-linecap="round" stroke-linejoin="round"/>
<path d="M1031.94 237.149L1115.45 237.149C1131.79 237.149 1144.76 250.384 1144.76 266.474L1144.76 331.609" stroke="#C3C3E5" stroke-width="2" stroke-miterlimit="10" stroke-linecap="round" stroke-linejoin="round"/>
<path d="M1474.66 689.207L1287.4 689.207C1271.06 689.207 1258.1 675.972 1258.1 659.883L1258.1 594.488L1258.1 557.638L1258.1 492.243C1258.1 475.894 1244.87 462.919 1228.79 462.919L1174.58 462.919C1158.25 462.919 1145.28 449.684 1145.28 433.595L1145.28 368.459" stroke="#C3C3E5" stroke-width="2" stroke-miterlimit="10" stroke-linecap="round" stroke-linejoin="round"/>
</svg>
