<svg width="390" height="367" viewBox="0 0 390 367" fill="none" xmlns="http://www.w3.org/2000/svg">
<path d="M194.566 129.036L250.538 308.113C250.538 308.113 248.592 309.8 246.17 307.897L190.197 128.82C190.197 128.82 192.144 126.008 194.566 129.036Z" fill="white" stroke="#00D9BA" stroke-width="2" stroke-miterlimit="10" stroke-linecap="round" stroke-linejoin="round"/>
<path d="M193.745 140.153L137.729 307.81C134.961 309.67 133.403 307.81 133.403 307.81L191.711 133.794" stroke="#00D9BA" stroke-width="2" stroke-miterlimit="10" stroke-linecap="round" stroke-linejoin="round"/>
<path d="M203.173 154.989H205.336C205.336 154.989 206.46 152.394 204.298 152.394H202.135" stroke="#00D9BA" stroke-width="2" stroke-miterlimit="10" stroke-linecap="round" stroke-linejoin="round"/>
<path d="M197.248 152.394H195.085C195.085 152.394 193.961 154.989 196.123 154.989H198.286" stroke="#00D9BA" stroke-width="2" stroke-miterlimit="10" stroke-linecap="round" stroke-linejoin="round"/>
<path d="M210.96 180.51H213.123C213.123 180.51 214.247 177.914 212.085 177.914H209.922" stroke="#00D9BA" stroke-width="2" stroke-miterlimit="10" stroke-linecap="round" stroke-linejoin="round"/>
<path d="M205.034 177.915H202.871C202.871 177.915 201.747 180.51 203.91 180.51H206.072" stroke="#00D9BA" stroke-width="2" stroke-miterlimit="10" stroke-linecap="round" stroke-linejoin="round"/>
<path d="M218.745 205.598H220.908C220.908 205.598 222.033 203.003 219.87 203.003H217.707" stroke="#00D9BA" stroke-width="2" stroke-miterlimit="10" stroke-linecap="round" stroke-linejoin="round"/>
<path d="M212.82 203.004H210.658C210.658 203.004 209.533 205.599 211.696 205.599H213.858" stroke="#00D9BA" stroke-width="2" stroke-miterlimit="10" stroke-linecap="round" stroke-linejoin="round"/>
<path d="M227.398 232.416H229.56C229.56 232.416 230.685 229.821 228.522 229.821H226.359" stroke="#00D9BA" stroke-width="2" stroke-miterlimit="10" stroke-linecap="round" stroke-linejoin="round"/>
<path d="M221.472 229.821H219.309C219.309 229.821 218.184 232.416 220.347 232.416H222.51" stroke="#00D9BA" stroke-width="2" stroke-miterlimit="10" stroke-linecap="round" stroke-linejoin="round"/>
<path d="M235.183 257.937H237.345C237.345 257.937 238.47 255.341 236.307 255.341H234.145" stroke="#00D9BA" stroke-width="2" stroke-miterlimit="10" stroke-linecap="round" stroke-linejoin="round"/>
<path d="M229.256 255.342H227.093C227.093 255.342 225.968 257.938 228.131 257.938H230.294" stroke="#00D9BA" stroke-width="2" stroke-miterlimit="10" stroke-linecap="round" stroke-linejoin="round"/>
<path d="M243.834 284.755H245.997C245.997 284.755 247.121 282.16 244.959 282.16H242.796" stroke="#00D9BA" stroke-width="2" stroke-miterlimit="10" stroke-linecap="round" stroke-linejoin="round"/>
<path d="M237.908 282.161H235.745C235.745 282.161 234.621 284.756 236.784 284.756H238.946" stroke="#00D9BA" stroke-width="2" stroke-miterlimit="10" stroke-linecap="round" stroke-linejoin="round"/>
<path opacity="0.15" d="M377.322 295.136C377.322 334.672 294.358 366.507 191.973 366.507C89.5877 366.507 6.62402 334.672 6.62402 295.136V293.839C6.62402 131.631 89.5877 1 191.973 1C294.358 1 377.322 131.631 377.322 293.839V295.136Z" fill="#00D9BA"/>
<path d="M170.127 59.8272C170.127 59.8272 182.671 65.883 173.155 77.5619C173.155 77.5619 186.564 73.6689 189.592 85.3479C189.592 85.3479 196.513 76.2643 207.759 83.1851C207.759 83.1851 206.894 70.6411 216.41 67.1806C216.41 67.1806 209.922 60.6923 213.382 51.1762C213.382 51.1762 205.596 52.0413 203.001 45.553C203.001 45.553 193.485 52.4738 183.104 45.553C183.104 45.553 183.104 55.5017 170.127 59.8272Z" fill="white"/>
<path d="M210.441 66.3155C210.441 66.3155 222.466 58.9621 219.87 48.5808C219.87 48.5808 227.224 52.4738 237.172 39.4972C237.172 39.4972 247.9 49.4027 255.772 41.66C255.772 41.66 266.067 54.0742 277.832 53.7714C277.832 53.7714 271.733 68.0457 282.115 76.3507C282.115 76.3507 273.464 88.5487 285.099 96.8538C285.099 96.8538 281.076 103.775 286.527 105.591C286.527 105.591 273.161 103.212 280.774 112.642C280.774 112.642 272.945 117.141 276.621 122.374C276.621 122.374 262.953 118.568 259.449 129.122C259.449 129.122 248.116 126.83 252.268 137.73C252.268 137.73 245.65 140.931 248.722 144.564C248.722 144.564 240.849 140.758 238.037 146.381C238.037 146.381 236.437 136.649 230.165 138.033C230.165 138.033 230.554 132.929 225.45 133.794C225.45 133.794 222.249 128.43 219.481 134.097C219.481 134.097 214.074 128.992 211.608 136.086C211.608 136.086 207.672 126.138 195.561 129.512C195.561 129.512 213.641 121.293 201.27 108.36C201.27 108.36 204.125 96.1617 192.965 98.0649C192.965 98.0649 194.825 71.8954 189.635 85.3046C189.635 85.3046 193.528 79.2488 198.243 78.2972C198.199 78.3405 210.354 84.4827 210.441 66.3155Z" fill="white"/>
<path d="M197.162 34.523L196.945 1.00012" stroke="#00D9BA" stroke-width="2" stroke-miterlimit="10" stroke-linecap="round" stroke-linejoin="round"/>
<path d="M191.754 1.00012L191.538 34.0904" stroke="#00D9BA" stroke-width="2" stroke-miterlimit="10" stroke-linecap="round" stroke-linejoin="round"/>
<path d="M198.243 45.553C198.243 45.553 198.675 49.0134 201.271 52.0413C203.866 55.0691 206.894 59.3947 206.894 63.7202C206.894 68.0457 204.731 75.3992 194.782 75.3992C184.834 75.3992 183.104 68.0457 183.104 63.7202C183.104 59.3947 186.131 54.6366 187.862 52.0413C189.592 49.446 190.024 45.553 190.024 45.553" fill="white"/>
<path d="M198.243 45.553C198.243 45.553 198.675 49.0134 201.271 52.0413C203.866 55.0691 206.894 59.3947 206.894 63.7202C206.894 68.0457 204.731 75.3992 194.782 75.3992C184.834 75.3992 183.104 68.0457 183.104 63.7202C183.104 59.3947 186.131 54.6366 187.862 52.0413C189.592 49.446 190.024 45.553 190.024 45.553" stroke="#00D9BA" stroke-width="2" stroke-miterlimit="10" stroke-linecap="round" stroke-linejoin="round"/>
<path d="M189.809 38.416C189.809 38.416 189.031 33.4849 194.351 33.8742C199.974 34.3067 198.461 38.416 198.461 38.416" stroke="#00D9BA" stroke-width="2" stroke-miterlimit="10" stroke-linecap="round" stroke-linejoin="round"/>
<path d="M189.375 41.4439C189.375 41.4439 187.299 37.1184 194.349 37.3346C201.054 37.5509 198.891 41.4439 198.891 41.4439" stroke="#00D9BA" stroke-width="2" stroke-miterlimit="10" stroke-linecap="round" stroke-linejoin="round"/>
<path d="M187.646 43.1741C187.646 41.8765 189.377 41.0114 194.135 41.0114C198.893 41.0114 200.191 41.8765 200.191 43.6067C200.191 45.3369 199.325 45.7694 193.702 45.7694C188.079 45.7694 187.646 44.4718 187.646 43.1741Z" stroke="#00D9BA" stroke-width="2" stroke-miterlimit="10" stroke-linecap="round" stroke-linejoin="round"/>
<path d="M193.268 45.7694C193.268 45.7694 193.268 53.9879 193.268 55.7181C193.268 57.4483 191.971 62.2064 190.673 62.2064C189.375 62.2064 186.78 59.6111 194.566 59.6111C202.352 59.6111 200.189 62.2064 198.459 62.2064C196.729 62.2064 196.296 59.6111 196.296 56.1507C196.296 52.6903 196.296 45.7694 196.296 45.7694" stroke="#00D9BA" stroke-width="2" stroke-miterlimit="10" stroke-linecap="round" stroke-linejoin="round"/>
<path d="M252.312 293.839H388.999" stroke="#00D9BA" stroke-width="2" stroke-miterlimit="10" stroke-linecap="round" stroke-linejoin="round"/>
<path d="M148.067 293.839H235.443" stroke="#00D9BA" stroke-width="2" stroke-miterlimit="10" stroke-linecap="round" stroke-linejoin="round"/>
<path d="M133.361 293.839H130.333" stroke="#00D9BA" stroke-width="2" stroke-miterlimit="10" stroke-linecap="round" stroke-linejoin="round"/>
<path d="M56.7994 293.839H1" stroke="#00D9BA" stroke-width="2" stroke-miterlimit="10" stroke-linecap="round" stroke-linejoin="round"/>
<path d="M98.3244 293.839H86.6455" stroke="#00D9BA" stroke-width="2" stroke-miterlimit="10" stroke-linecap="round" stroke-linejoin="round"/>
<path d="M101.785 295.569C101.785 295.569 105.246 289.513 108.273 296.434C111.301 303.355 105.246 301.192 105.246 298.164C105.246 295.136 106.976 291.676 110.436 291.676C113.897 291.676 114.762 300.327 112.166 300.327C109.571 300.327 111.301 290.378 115.627 290.378C119.952 290.378 121.683 300.76 119.087 300.76C116.492 300.76 116.059 290.811 121.25 290.811C126.441 290.811 126.441 298.164 123.845 299.894" stroke="#00D9BA" stroke-width="2" stroke-miterlimit="10" stroke-linecap="round" stroke-linejoin="round"/>
<path d="M74.9672 283.457C71.5068 285.62 77.13 295.569 81.4555 292.541C85.781 289.513 78.4276 281.295 74.9672 283.457Z" stroke="#00D9BA" stroke-width="2" stroke-miterlimit="10" stroke-linecap="round" stroke-linejoin="round"/>
<path d="M76.6963 285.62L80.5893 290.811" stroke="#00D9BA" stroke-width="2" stroke-miterlimit="10" stroke-linecap="round" stroke-linejoin="round"/>
<path d="M79.7252 287.35L77.1299 289.513" stroke="#00D9BA" stroke-width="2" stroke-miterlimit="10" stroke-linecap="round" stroke-linejoin="round"/>
<path d="M81.0659 292.801L77.1297 296.867C77.1297 296.867 74.5344 296.001 72.3716 293.406C70.2089 290.811 69.3438 287.35 69.3438 287.35L74.5344 283.803" stroke="#00D9BA" stroke-width="2" stroke-miterlimit="10" stroke-linecap="round" stroke-linejoin="round"/>
<path d="M73.67 294.747L63.7212 302.49C63.7212 302.49 62.4236 302.057 61.5585 300.759C60.6934 299.462 60.6934 297.732 60.6934 297.732L70.4691 290.335" stroke="#00D9BA" stroke-width="2" stroke-miterlimit="10" stroke-linecap="round" stroke-linejoin="round"/>
<path d="M67.7861 292.368C67.7861 292.368 68.0457 293.406 68.9108 294.704C69.7759 296.001 71.5061 296.867 71.5061 296.867" stroke="#00D9BA" stroke-width="2" stroke-miterlimit="10" stroke-linecap="round" stroke-linejoin="round"/>
<path opacity="0.3" d="M268.707 110.736C265.247 110.563 264.641 109.352 265.42 104.075C267.409 95.6397 267.02 93.996 266.89 93.823L253.654 65.4043C253.654 65.4043 247.901 61.7708 242.667 62.4629C242.667 62.4629 231.81 62.1169 219.007 72.3684C215.027 75.526 212.259 79.8083 210.269 84.4799C210.183 84.6961 210.096 84.9124 210.01 85.1719C207.674 89.584 206.506 90.103 203.651 88.3296C200.667 86.4263 195.822 81.6683 197.941 89.5407C199.585 95.6397 206.16 100.311 208.712 101.955C209.101 107.319 210.226 113.201 212.605 118.608C211.091 121.463 209.923 123.323 209.793 123.28C209.664 123.237 208.582 122.025 207.328 123.107C207.328 123.107 205.684 125.399 209.274 127.995C211.956 129.509 226.317 125.183 226.317 125.183L228.653 126.308C228.653 126.308 237.174 138.592 240.245 139.111C244.657 139.284 244.787 136.473 244.787 136.473C244.484 134.829 242.884 135.089 242.754 135.045C242.624 135.002 242.84 132.839 243.446 129.638C243.446 129.638 248.68 125.313 251.881 122.804C253.481 121.55 255.125 120.252 256.682 118.954C259.753 119.127 267.756 119.127 272.6 115.148C278.959 109.871 272.211 110.909 268.707 110.736ZM230.08 98.7541C229.129 99.1001 227.831 98.0188 227.831 98.0188C226.403 96.9806 224.37 98.1053 221.645 95.683C220.953 95.0774 220.348 94.5151 220.002 93.65C219.353 92.0495 219.396 89.93 219.526 88.2431C219.656 86.8156 219.483 84.6961 221.299 84.3501C222.856 84.0473 224.976 84.7826 226.403 85.2584C227.917 85.7343 228.826 86.2966 229.734 86.9454C232.719 89.0649 232.2 93.477 231.464 96.5913C231.291 97.1537 231.032 98.4081 230.08 98.7541ZM256.163 100.614C255.255 102.042 254 103.772 252.53 104.637C251.751 105.113 250.929 105.199 250.021 105.286C246.431 105.545 245.522 103.426 243.792 103.426C243.792 103.426 242.105 103.512 241.586 102.647C241.024 101.782 241.586 100.657 241.802 100.095C243.1 97.1104 245.349 93.3472 248.983 93.4337C250.064 93.477 251.145 93.6067 252.573 94.0825C254 94.5583 256.12 95.2504 257.158 96.4183C258.326 97.8457 256.942 99.4029 256.163 100.614Z" fill="#00D9BA"/>
<path d="M253.695 65.364C253.695 65.364 247.942 61.7305 242.708 62.4226C242.708 62.4226 231.851 62.0766 219.048 72.3281C215.068 75.4857 212.3 79.768 210.31 84.4396C210.224 84.6558 210.137 84.8721 210.051 85.1317C207.715 89.5437 206.547 90.0628 203.692 88.2893C200.708 86.3861 195.863 81.628 197.982 89.5005C199.626 95.5995 206.201 100.271 208.753 101.915C209.142 107.278 210.267 113.161 212.646 118.568C211.132 121.423 209.964 123.283 209.834 123.24C209.705 123.196 208.623 121.985 207.369 123.067C207.369 123.067 205.725 125.359 209.315 127.954C211.997 129.468 226.358 125.143 226.358 125.143L228.694 126.267C228.694 126.267 237.215 138.552 240.286 139.071C244.698 139.244 244.828 136.432 244.828 136.432C244.525 134.789 242.925 135.048 242.795 135.005C242.665 134.962 242.881 132.799 243.487 129.598C243.487 129.598 248.721 125.273 251.922 122.764C253.522 121.509 255.166 120.212 256.723 118.914C259.794 119.087 267.797 119.087 272.641 115.108C278.956 109.96 272.252 110.998 268.705 110.825C265.244 110.652 264.639 109.441 265.417 104.164C267.407 95.7292 267.018 94.0855 266.888 93.9125" stroke="#00D9BA" stroke-width="2" stroke-miterlimit="10" stroke-linecap="round" stroke-linejoin="round"/>
<path d="M227.787 98.0218C227.787 98.0218 229.085 99.1032 230.036 98.7571C230.988 98.4111 231.247 97.1999 231.42 96.5944C232.199 93.4367 232.675 89.0679 229.69 86.9484C228.825 86.2996 227.873 85.7805 226.359 85.2615C224.889 84.7857 222.813 84.0071 221.255 84.3531C219.439 84.6991 219.612 86.8187 219.482 88.2461C219.352 89.933 219.309 92.0525 219.958 93.653C220.304 94.5181 220.909 95.0804 221.601 95.686C224.326 98.1083 226.403 96.9837 227.787 98.0218Z" fill="white" stroke="#00D9BA" stroke-width="2" stroke-miterlimit="10" stroke-linecap="round" stroke-linejoin="round"/>
<path d="M243.791 103.429C243.791 103.429 242.104 103.515 241.585 102.65C241.023 101.785 241.585 100.66 241.802 100.098C243.099 97.1134 245.349 93.3501 248.982 93.4366C250.063 93.4799 251.145 93.6097 252.572 94.0855C254 94.5613 256.119 95.2534 257.157 96.4213C258.368 97.8054 256.941 99.4059 256.162 100.574C255.254 102.001 254 103.731 252.529 104.597C251.75 105.072 250.929 105.159 250.02 105.245C246.43 105.548 245.522 103.429 243.791 103.429Z" fill="white" stroke="#00D9BA" stroke-width="2" stroke-miterlimit="10" stroke-linecap="round" stroke-linejoin="round"/>
<path d="M226.403 85.6508L228.782 87.9433L223.851 89.8465L226.619 92.5716L222.597 96.1185" stroke="#00D9BA" stroke-width="2" stroke-miterlimit="10" stroke-linecap="round" stroke-linejoin="round"/>
<path d="M252.227 94.4748L249.026 95.0371L252.054 99.3626L248.204 100.098L249.588 105.289" stroke="#00D9BA" stroke-width="2" stroke-miterlimit="10" stroke-linecap="round" stroke-linejoin="round"/>
<path d="M248.249 126.57C248.249 126.57 236.483 123.672 228.005 120.428C219.57 117.184 209.449 111.604 209.449 111.604L208.497 107.278C208.497 107.278 221.257 114.069 229.216 117.141C237.175 120.168 251.796 123.499 251.796 123.499L248.249 126.57Z" fill="white" stroke="#00D9BA" stroke-width="2" stroke-miterlimit="10" stroke-linecap="round" stroke-linejoin="round"/>
<path d="M243.577 121.133L241.59 120.531L240.311 124.754L242.298 125.356L243.577 121.133Z" fill="white" stroke="#00D9BA" stroke-width="2" stroke-miterlimit="10" stroke-linecap="round" stroke-linejoin="round"/>
<path d="M234.013 118.19L232.026 117.587L230.745 121.809L232.732 122.412L234.013 118.19Z" fill="white" stroke="#00D9BA" stroke-width="2" stroke-miterlimit="10" stroke-linecap="round" stroke-linejoin="round"/>
<path d="M236.095 122.504L234.365 122.115L235.749 116.751L236.917 116.967L236.095 122.504Z" fill="white" stroke="#00D9BA" stroke-width="2" stroke-miterlimit="10" stroke-linecap="round" stroke-linejoin="round"/>
<path d="M237.22 117.054L235.446 116.665L236.138 114.891L237.306 115.107L237.22 117.054Z" fill="white" stroke="#00D9BA" stroke-width="2" stroke-miterlimit="10" stroke-linecap="round" stroke-linejoin="round"/>
<path d="M236.27 119.909L235.145 119.692C234.929 119.649 234.799 119.433 234.842 119.216C234.886 119 235.102 118.87 235.318 118.914L236.443 119.13C236.659 119.173 236.789 119.389 236.746 119.606C236.702 119.779 236.486 119.952 236.27 119.909Z" fill="#00D9BA"/>
<path d="M240.504 111.777L241.932 110.739L244.614 112.08V112.988C244.614 112.988 246.387 113.377 246.863 114.675C247.339 115.973 246.949 117.011 246.949 117.011C246.949 117.011 245.825 115.237 245.263 114.978C244.7 114.718 244.354 114.761 242.71 116.448L239.639 114.934C239.639 114.934 239.899 114.372 238.428 113.637C236.957 112.901 236.957 113.377 236.568 113.204C236.179 113.031 236.136 112.209 236.568 111.344C236.957 110.522 237.563 110.003 237.952 110.176C238.342 110.349 238.644 110.868 239.38 111.214C240.158 111.647 240.504 111.777 240.504 111.777Z" fill="white" stroke="#00D9BA" stroke-width="2" stroke-miterlimit="10" stroke-linecap="round" stroke-linejoin="round"/>
<path d="M242.463 116.345L240.058 115.16L236.369 122.649L238.775 123.834L242.463 116.345Z" fill="white" stroke="#00D9BA" stroke-width="2" stroke-miterlimit="10" stroke-linecap="round" stroke-linejoin="round"/>
<path d="M241.111 118.438L239.251 117.53C238.949 117.4 238.819 117.011 238.949 116.708C239.078 116.405 239.468 116.275 239.77 116.405L241.63 117.314C241.933 117.443 242.063 117.833 241.933 118.135C241.76 118.438 241.414 118.568 241.111 118.438Z" fill="#00D9BA"/>
<path d="M230.038 123.629C230.038 123.629 229.346 126.008 229.302 126.181C229.259 126.397 229.216 126.873 229.389 127.176C229.562 127.479 229.951 127.781 230.167 127.825C230.384 127.868 238.862 130.377 239.165 130.463C239.467 130.55 240.073 130.636 240.462 130.42C240.852 130.204 241.111 129.987 241.198 129.771C241.241 129.555 241.976 127.089 241.976 127.089" fill="white"/>
<path d="M230.038 123.629C230.038 123.629 229.346 126.008 229.302 126.181C229.259 126.397 229.216 126.873 229.389 127.176C229.562 127.479 229.951 127.781 230.167 127.825C230.384 127.868 238.862 130.377 239.165 130.463C239.467 130.55 240.073 130.636 240.462 130.42C240.852 130.204 241.111 129.987 241.198 129.771C241.241 129.555 241.976 127.089 241.976 127.089" stroke="#00D9BA" stroke-width="2" stroke-miterlimit="10" stroke-linecap="round" stroke-linejoin="round"/>
<path d="M230.404 120.817L229.626 123.473L242.287 127.181L243.065 124.524L230.404 120.817Z" fill="white" stroke="#00D9BA" stroke-width="2" stroke-miterlimit="10" stroke-linecap="round" stroke-linejoin="round"/>
<path d="M220.565 65.1477C220.565 65.1477 216.629 65.1477 216.153 66.4454C215.677 67.743 214.38 75.2695 221.906 78.1243C229.432 80.9792 232.85 82.2768 232.85 82.2768L250.281 88.9381C250.281 88.9381 253.699 90.2358 261.225 93.0906C268.751 95.9455 272.774 89.5005 273.293 88.2028C273.769 86.9051 270.871 84.3098 270.871 84.3098" fill="white"/>
<path d="M220.565 65.1477C220.565 65.1477 216.629 65.1477 216.153 66.4454C215.677 67.743 214.38 75.2695 221.906 78.1243C229.432 80.9792 232.85 82.2768 232.85 82.2768L250.281 88.9381C250.281 88.9381 253.699 90.2358 261.225 93.0906C268.751 95.9455 272.774 89.5005 273.293 88.2028C273.769 86.9051 270.871 84.3098 270.871 84.3098" stroke="#00D9BA" stroke-width="2" stroke-miterlimit="10" stroke-linecap="round" stroke-linejoin="round"/>
<path d="M252.575 50.0082C226.709 41.7465 219.701 67.9592 219.701 67.9592C219.701 67.9592 231.294 75.6154 244.27 80.5898C257.29 85.5641 269.661 86.9915 269.661 86.9915C269.661 86.9915 281.946 62.5955 256.814 51.6087" fill="white"/>
<path d="M252.575 50.0082C226.709 41.7465 219.701 67.9592 219.701 67.9592C219.701 67.9592 231.294 75.6154 244.27 80.5898C257.29 85.5641 269.661 86.9915 269.661 86.9915C269.661 86.9915 281.946 62.5955 256.814 51.6087" stroke="#00D9BA" stroke-width="2" stroke-miterlimit="10" stroke-linecap="round" stroke-linejoin="round"/>
<path d="M252.314 83.185L257.073 70.6843C257.073 70.6843 258.284 68.781 256.337 65.6666C254.391 62.5523 254.953 56.3667 256.726 51.6519C256.726 51.6519 257.505 50.9166 255.126 50.0082C252.747 49.0998 252.617 50.0082 252.617 50.0082C250.8 54.723 247.124 59.6974 243.577 60.7355C240.03 61.7737 239.684 63.9797 239.684 63.9797L234.926 76.4805C234.969 76.5237 242.712 80.5465 252.314 83.185Z" fill="white" stroke="#00D9BA" stroke-width="2" stroke-miterlimit="10" stroke-linecap="round" stroke-linejoin="round"/>
</svg>
