<svg width="24" height="24" viewBox="0 0 24 24" fill="none" xmlns="http://www.w3.org/2000/svg">
<path d="M13.3001 3.73991C13.2008 3.6437 13.1224 3.52792 13.0701 3.39991C13.0219 3.27213 12.9982 3.13645 13.0001 2.99991C12.9837 2.79025 13.0339 2.58077 13.1434 2.40124C13.2529 2.22172 13.4162 2.08128 13.6101 1.99991C13.8091 1.94014 14.0212 1.94014 14.2201 1.99991C14.4197 2.05103 14.6002 2.15867 14.7401 2.30991L18.5201 6.08991C17.7655 6.20252 17.0373 6.44978 16.3701 6.81991L13.3001 3.73991Z" fill="white"/>
<path d="M13 12.5C12.9915 11.2617 13.3386 10.0469 14 9H0V11H0.64C0.901585 10.9984 1.15822 11.0713 1.38 11.21C1.60007 11.3514 1.77933 11.5479 1.9 11.78L6 22H18L19.21 19C17.536 18.9277 15.9548 18.2108 14.7974 16.9993C13.6399 15.7878 12.9959 14.1756 13 12.5V12.5Z" fill="white"/>
<path d="M10.7001 3.73996C10.7994 3.64375 10.8777 3.52797 10.9301 3.39996C10.9782 3.27218 11.002 3.1365 11.0001 2.99996C11.0075 2.79478 10.9517 2.59228 10.8401 2.41996C10.7268 2.23785 10.5637 2.09207 10.3701 1.99996C10.1806 1.92506 9.97275 1.90982 9.77438 1.95629C9.57601 2.00275 9.39656 2.1087 9.26006 2.25996L4.56006 6.99996H7.44006L10.7001 3.73996Z" fill="white"/>
</svg>
