<svg width="21" height="21" viewBox="0 0 21 21" fill="none" xmlns="http://www.w3.org/2000/svg">
<path d="M11.6089 9.80342C11.6134 8.81711 10.8177 8.01404 9.83142 8.0095C8.84512 8.00497 8.04204 8.80069 8.03751 9.78699C8.03297 10.7733 8.8287 11.5764 9.815 11.5809C10.8013 11.5854 11.6044 10.7897 11.6089 9.80342Z" fill="#505071"/>
<path d="M11.6372 3.80189C11.6418 2.81559 10.846 2.01251 9.85974 2.00797C8.87344 2.00344 8.07036 2.79916 8.06583 3.78546C8.06129 4.77177 8.85702 5.57484 9.84332 5.57938C10.8296 5.58391 11.6327 4.78819 11.6372 3.80189Z" fill="#505071"/>
<path d="M11.5796 16.2307C11.5841 15.2444 10.7884 14.4413 9.80212 14.4368C8.81582 14.4323 8.01275 15.228 8.00821 16.2143C8.00368 17.2006 8.7994 18.0037 9.7857 18.0082C10.772 18.0127 11.5751 17.217 11.5796 16.2307Z" fill="#505071"/>
</svg>
