<svg width="31" height="27" viewBox="0 0 31 27" fill="none" xmlns="http://www.w3.org/2000/svg">
<path d="M13 12.5C12.9898 11.2614 13.337 10.0462 14 9H0V11H0.64C0.901964 10.9991 1.15892 11.0717 1.38166 11.2096C1.6044 11.3475 1.78399 11.5451 1.9 11.78L6 22H18L19.21 19C17.536 18.9277 15.9548 18.2108 14.7974 16.9993C13.6399 15.7878 12.9959 14.1756 13 12.5V12.5Z" fill="white"/>
<path d="M10.7 3.73999C10.7982 3.64387 10.8754 3.52855 10.9271 3.40123C10.9787 3.27391 11.0035 3.13733 11 2.99999C11.0057 2.7958 10.9487 2.59477 10.8367 2.42394C10.7247 2.25311 10.5631 2.12067 10.3736 2.04443C10.1841 1.96819 9.9758 1.95182 9.77671 1.9975C9.57762 2.04319 9.3973 2.14875 9.26 2.29999L4.56 6.99999H7.44L10.7 3.73999Z" fill="white"/>
<path d="M12.8603 3.73999C12.7622 3.64386 12.6849 3.52855 12.6333 3.40123C12.5816 3.27391 12.5568 3.13733 12.5603 2.99999C12.5546 2.7958 12.6116 2.59477 12.7236 2.42394C12.8356 2.25311 12.9972 2.12067 13.1867 2.04443C13.3762 1.96819 13.5845 1.95182 13.7836 1.9975C13.9827 2.04319 14.163 2.14875 14.3003 2.29999L19.0003 6.99999H16.1203L12.8603 3.73999Z" fill="white"/>
<g clip-path="url(#clip0_1903:5332)">
<path d="M11.21 12.5C11.2201 11.2614 10.8729 10.0462 10.21 9H24.21V11H23.57C23.308 10.9991 23.051 11.0717 22.8283 11.2096C22.6056 11.3475 22.426 11.5451 22.31 11.78L18.21 22H6.20996L4.99996 19C6.67396 18.9277 8.25513 18.2108 9.41259 16.9993C10.5701 15.7878 11.2141 14.1756 11.21 12.5V12.5Z" fill="white"/>
</g>
<defs>
<clipPath id="clip0_1903:5332">
<rect width="24" height="24" fill="white" transform="matrix(-1 0 0 1 31 3)"/>
</clipPath>
</defs>
</svg>
