<svg width="30" height="32" viewBox="0 0 30 32" fill="none" xmlns="http://www.w3.org/2000/svg">
<path d="M25.0609 7.87937V7.07203C25.0609 6.4051 25.4354 5.79668 26.0321 5.49246C26.6639 5.17655 27.0851 4.54472 27.0968 3.84269C27.0968 3.80759 27.0968 3.77248 27.0968 3.72568C27.05 2.69604 26.2193 1.8419 25.1779 1.78339C24.0079 1.72489 23.0367 2.64923 23.0367 3.80759" stroke="#505071" stroke-miterlimit="10" stroke-linecap="round" stroke-linejoin="round"/>
<path d="M25.9269 10.4774C25.9269 10.9572 25.5408 11.3316 25.0728 11.3316C24.6047 11.3316 24.2186 10.9455 24.2186 10.4774C24.2186 10.0094 24.6047 9.62331 25.0728 9.62331C25.5408 9.61161 25.9269 9.99772 25.9269 10.4774Z" fill="#505071"/>
<path d="M25.7749 28.5779L28.3373 19.9663C28.6181 19.0185 27.9161 18.0708 26.9215 18.0708H15.0455H3.15775C2.1749 18.0708 1.46117 19.0185 1.74198 19.9663L4.3044 28.5779H15.0806" stroke="#505071" stroke-miterlimit="10" stroke-linecap="round" stroke-linejoin="round"/>
<path d="M2.50245 26.7759L1.13349 29.35C0.735671 30.0988 1.2739 30.9998 2.12804 30.9998H15.0454H27.9628C28.8053 30.9998 29.3552 30.0988 28.9574 29.35L27.5884 26.7759" stroke="#505071" stroke-miterlimit="10" stroke-linecap="round" stroke-linejoin="round"/>
<path d="M15.0457 12.4665C17.5982 12.4665 19.6674 9.89965 19.6674 6.73326C19.6674 3.56687 17.5982 1 15.0457 1C12.4932 1 10.424 3.56687 10.424 6.73326C10.424 9.89965 12.4932 12.4665 15.0457 12.4665Z" stroke="#505071" stroke-miterlimit="10" stroke-linecap="round" stroke-linejoin="round"/>
<path d="M26.9677 19.5102C26.956 19.4868 26.9443 19.4868 26.9326 19.4868H15.0449H3.15715C3.14545 19.4868 3.13375 19.4868 3.12205 19.5102C3.11035 19.5336 3.11035 19.5453 3.11035 19.557L4.44421 24.0617C4.45591 24.05 4.45591 24.0383 4.46761 24.0266C5.33345 22.5524 6.90132 21.6514 8.6096 21.6514H26.3593L26.9794 19.557C26.9794 19.5453 26.9794 19.5336 26.9677 19.5102Z" fill="#00D9BA"/>
<path d="M11.7459 10.7461C11.7459 10.7461 8.46971 12.5246 7.19435 13.5425C6.89014 13.7882 6.63273 14.0807 6.43382 14.4084C6.0477 15.0168 5.87219 15.7422 5.87219 16.4677V18.0706" stroke="#505071" stroke-miterlimit="10" stroke-linecap="round" stroke-linejoin="round"/>
<path d="M18.3451 10.7461C18.3451 10.7461 21.6212 12.5246 22.8966 13.5425C23.2008 13.7882 23.4582 14.0807 23.6571 14.4084C24.0432 15.0168 24.2188 15.7422 24.2188 16.4677V18.0706" stroke="#505071" stroke-miterlimit="10" stroke-linecap="round" stroke-linejoin="round"/>
</svg>
