<svg width="20" height="20" viewBox="0 0 20 20" fill="none" xmlns="http://www.w3.org/2000/svg">
<circle cx="10" cy="10" r="9.5" stroke="#FF6C7D"/>
<path d="M10.8861 10L14.8101 6.0625C15.0633 5.8125 15.0633 5.4375 14.8101 5.1875C14.557 4.9375 14.1772 4.9375 13.9241 5.1875L10 9.125L6.07595 5.1875C5.82278 4.9375 5.44304 4.9375 5.18987 5.1875C4.93671 5.4375 4.93671 5.8125 5.18987 6.0625L9.11392 10L5.18987 13.9375C4.93671 14.1875 4.93671 14.5625 5.18987 14.8125C5.44304 15.0625 5.82278 15.0625 6.07595 14.8125L10 10.875L13.9241 14.8125C14.0506 14.9375 14.2405 15 14.3671 15C14.557 15 14.6835 14.9375 14.8101 14.8125C15.0633 14.5625 15.0633 14.1875 14.8101 13.9375L10.8861 10Z" fill="#FF6C7D"/>
</svg>
