<svg width="32" height="32" viewBox="0 0 32 32" fill="none" xmlns="http://www.w3.org/2000/svg">
<path d="M30 4.33333C30 4.88562 29.5523 5.33333 29 5.33333H3C2.44771 5.33333 2 4.88562 2 4.33333V4C2 3.44772 2.44772 3 3 3H29C29.5523 3 30 3.44772 30 4V4.33333ZM30 9.83333C30 9.28105 29.5523 8.83333 29 8.83333H3C2.44771 8.83333 2 9.28105 2 9.83333V10.1667C2 10.719 2.44772 11.1667 3 11.1667H29C29.5523 11.1667 30 10.719 30 10.1667V9.83333ZM30 15.6667C30 15.1144 29.5523 14.6667 29 14.6667H3C2.44771 14.6667 2 15.1144 2 15.6667V16C2 16.5523 2.44772 17 3 17H29C29.5523 17 30 16.5523 30 16V15.6667ZM30 21.5C30 20.9477 29.5523 20.5 29 20.5H3C2.44771 20.5 2 20.9477 2 21.5V21.8333C2 22.3856 2.44772 22.8333 3 22.8333H29C29.5523 22.8333 30 22.3856 30 21.8333V21.5ZM30 27.3333C30 26.781 29.5523 26.3333 29 26.3333H3C2.44771 26.3333 2 26.781 2 27.3333V27.6667C2 28.219 2.44772 28.6667 3 28.6667H29C29.5523 28.6667 30 28.219 30 27.6667V27.3333Z" fill="#505071"/>
</svg>
