<svg width="24" height="24" viewBox="0 0 24 24" fill="none" xmlns="http://www.w3.org/2000/svg">
<path d="M12.015 7C16.766 7 20.078 10.012 21.519 11.636C20.118 13.473 16.806 17 12.015 17C7.595 17 4.085 13.464 2.537 11.593C4.03 9.946 7.354 7 12.015 7ZM12.015 5C4.446 5 0 11.551 0 11.551C0 11.551 4.835 19 12.015 19C19.748 19 24 11.551 24 11.551C24 11.551 19.709 5 12.015 5ZM12 12L8.64 9.829C8.235 10.454 8 11.2 8 12C8 14.209 9.791 16 12 16C14.209 16 16 14.209 16 12C16 9.791 14.209 8 12 8C11.258 8 10.562 8.202 9.967 8.554L12 12Z" fill="#505071"/>
</svg>
