<svg width="847" height="82" viewBox="0 0 847 82" fill="none" xmlns="http://www.w3.org/2000/svg">
<path d="M828.907 2.34473H832.335C833.272 2.34473 834.078 2.68164 834.752 3.35547C835.426 4.0293 835.763 4.83496 835.763 5.77246V48.751C835.763 53.7021 836.539 56.4268 838.092 56.9248C838.883 57.1592 839.791 57.2764 840.816 57.2764C841.52 57.2764 842.267 57.2178 843.058 57.1006C845.226 57.1006 846.31 57.9648 846.31 59.6934V63.0771C844.317 63.5459 842.193 63.7803 839.938 63.7803C839.234 63.7803 838.546 63.751 837.872 63.6924C835.001 63.4873 832.789 62.3887 831.236 60.3965C829.684 58.4043 828.907 54.5225 828.907 48.751V2.34473Z" fill="#00D9BA"/>
<path d="M811.241 41.2363C811.241 36.1387 810.333 32.2861 808.517 29.6787C806.231 26.4268 802.408 24.8008 797.047 24.8008C791.686 24.8008 787.862 26.4268 785.577 29.6787C783.731 32.2861 782.809 36.1387 782.809 41.2363C782.809 46.3926 783.673 50.2451 785.401 52.7939C787.599 56.0459 791.363 57.6719 796.695 57.6719C804.137 57.6719 808.985 54.4492 811.241 48.0039V41.2363ZM811.241 54.1123C808.077 60.7627 802.833 64.0879 795.509 64.0879C782.472 64.0879 775.953 56.4707 775.953 41.2363C775.953 26.002 782.984 18.3848 797.047 18.3848C811.08 18.3848 818.097 26.002 818.097 41.2363V63.5605H814.669C813.731 63.5605 812.926 63.2236 812.252 62.5498C811.578 61.9053 811.241 61.0996 811.241 60.1328V54.1123Z" fill="#00D9BA"/>
<path d="M742.511 25.416C741.573 25.416 740.768 25.0791 740.094 24.4053C739.42 23.7607 739.083 22.9551 739.083 21.9883V18.9121H745.455V10.4307C745.455 9.46387 745.792 8.6582 746.466 8.01367C747.14 7.33984 747.945 7.00293 748.883 7.00293H752.311V18.9121H767.208C768.146 18.9121 768.951 19.249 769.625 19.9229C770.299 20.5967 770.636 21.4023 770.636 22.3398V25.416H752.311V48.3994C752.311 52.0908 753.277 54.625 755.211 56.002C756.822 57.1152 759.518 57.6719 763.297 57.6719C764.879 57.6719 766.549 57.54 768.307 57.2764C770.475 57.2764 771.559 58.126 771.559 59.8252V63.209C768.863 63.7949 766.109 64.0879 763.297 64.0879C757.203 64.0879 752.809 63.0332 750.113 60.9238C747.008 58.5215 745.455 54.3467 745.455 48.3994V25.416H742.511Z" fill="#00D9BA"/>
<path d="M706.036 18.9121H709.464C710.401 18.9121 711.207 19.249 711.881 19.9229C712.555 20.5967 712.892 21.4023 712.892 22.3398V28.3604C716.085 21.71 720.553 18.3848 726.295 18.3848C729.078 18.3848 731.832 18.6924 734.557 19.3076V22.6914C734.557 24.3906 733.473 25.2402 731.305 25.2402C729.518 24.9766 727.452 24.8447 725.108 24.8447C719.249 24.8447 715.177 28.0527 712.892 34.4688V60.1328C712.892 61.0996 712.555 61.9199 711.881 62.5938C711.207 63.2383 710.401 63.5605 709.464 63.5605H706.036V18.9121Z" fill="#00D9BA"/>
<path d="M675.055 24.8447C669.693 24.8447 665.87 26.4561 663.585 29.6787C661.739 32.2861 660.816 36.1387 660.816 41.2363C660.816 46.334 661.739 50.2012 663.585 52.8379C665.87 56.0605 669.693 57.6719 675.055 57.6719C680.416 57.6719 684.239 56.0605 686.524 52.8379C688.341 50.2012 689.249 46.334 689.249 41.2363C689.249 36.1387 688.341 32.2861 686.524 29.6787C684.239 26.4561 680.416 24.8447 675.055 24.8447ZM675.055 18.3848C689.088 18.3848 696.104 26.002 696.104 41.2363C696.104 56.4707 689.088 64.0879 675.055 64.0879C660.992 64.0879 653.961 56.4707 653.961 41.2363C653.961 26.002 660.992 18.3848 675.055 18.3848Z" fill="#00D9BA"/>
<path d="M612.301 63.5605H605.05V18.7803C605.05 13.2725 607.32 8.93652 611.861 5.77246C615.934 2.93066 620.914 1.50977 626.803 1.50977H626.979C632.926 1.53906 637.921 2.97461 641.964 5.81641C646.476 8.98047 648.731 13.3018 648.731 18.7803C648.731 31.4951 640.558 37.8525 624.21 37.8525H612.301V63.5605ZM612.301 31.3486H624.21C635.724 31.3486 641.48 27.1592 641.48 18.7803C641.48 15.2939 639.942 12.5986 636.866 10.6943C634.259 9.1123 630.948 8.32129 626.935 8.32129H626.715C622.789 8.32129 619.537 9.1123 616.959 10.6943C613.854 12.5693 612.301 15.2646 612.301 18.7803V31.3486Z" fill="#00D9BA"/>
<path d="M546.163 18.9121H549.591C550.528 18.9121 551.334 19.249 552.008 19.9229C552.682 20.5967 553.019 21.4023 553.019 22.3398V28.3604C556.212 21.71 560.68 18.3848 566.422 18.3848C569.205 18.3848 571.959 18.6924 574.684 19.3076V22.6914C574.684 24.3906 573.6 25.2402 571.432 25.2402C569.645 24.9766 567.579 24.8447 565.235 24.8447C559.376 24.8447 555.304 28.0527 553.019 34.4688V60.1328C553.019 61.0996 552.682 61.9199 552.008 62.5938C551.334 63.2383 550.528 63.5605 549.591 63.5605H546.163V18.9121Z" fill="#00D9BA"/>
<path d="M529.552 37.8086C529.2 33.3848 528.395 30.2939 527.135 28.5361C525.318 26.0459 522.169 24.8008 517.687 24.8008C513.146 24.8008 509.85 26.0312 507.799 28.4922C506.188 30.4258 505.221 33.5312 504.898 37.8086H529.552ZM519.005 64.0879C504.942 64.0879 497.911 56.4707 497.911 41.2363C497.911 26.002 504.503 18.3848 517.687 18.3848C524.835 18.3848 529.903 20.5967 532.892 25.0205C535.323 28.5947 536.539 33.9854 536.539 41.1924C536.539 43.2725 535.396 44.3125 533.111 44.3125H504.942C505.177 53.2188 509.864 57.6719 519.005 57.6719C523.634 57.6719 528.336 56.793 533.111 55.0352C533.639 54.8887 534.122 54.8154 534.562 54.8154C535.646 54.8154 536.188 55.416 536.188 56.6172V60.0449C531.705 62.7402 525.978 64.0879 519.005 64.0879Z" fill="#00D9BA"/>
<path d="M454.625 54.9912C459.576 56.7783 464.322 57.6719 468.863 57.6719C474.078 57.6719 477.828 56.1484 480.113 53.1016C482.076 50.4648 483.058 46.5098 483.058 41.2363C483.058 35.9336 482.135 31.9932 480.289 29.415C478.092 26.3682 474.386 24.8447 469.171 24.8447C461.583 24.8447 456.734 27.8037 454.625 33.7217V54.9912ZM454.625 28.3604C457.818 21.71 463.062 18.3848 470.357 18.3848C483.395 18.3848 489.913 26.002 489.913 41.2363C489.913 56.4707 482.896 64.0879 468.863 64.0879C463.941 64.0879 459.195 63.2383 454.625 61.5391V76.7002C454.625 77.6377 454.288 78.4434 453.614 79.1172C452.94 79.791 452.135 80.1279 451.197 80.1279H447.77V18.9121H451.197C452.135 18.9121 452.94 19.249 453.614 19.9229C454.288 20.5967 454.625 21.4023 454.625 22.3398V28.3604Z" fill="#00D9BA"/>
<path d="M416.744 24.8447C411.383 24.8447 407.56 26.4561 405.274 29.6787C403.429 32.2861 402.506 36.1387 402.506 41.2363C402.506 46.334 403.429 50.2012 405.274 52.8379C407.56 56.0605 411.383 57.6719 416.744 57.6719C422.105 57.6719 425.929 56.0605 428.214 52.8379C430.03 50.2012 430.938 46.334 430.938 41.2363C430.938 36.1387 430.03 32.2861 428.214 29.6787C425.929 26.4561 422.105 24.8447 416.744 24.8447ZM416.744 18.3848C430.777 18.3848 437.794 26.002 437.794 41.2363C437.794 56.4707 430.777 64.0879 416.744 64.0879C402.682 64.0879 395.65 56.4707 395.65 41.2363C395.65 26.002 402.682 18.3848 416.744 18.3848Z" fill="#00D9BA"/>
<path d="M374.688 2.34473H378.116C379.054 2.34473 379.859 2.68164 380.533 3.35547C381.207 4.0293 381.544 4.83496 381.544 5.77246V48.751C381.544 53.7021 382.32 56.4268 383.873 56.9248C384.664 57.1592 385.572 57.2764 386.598 57.2764C387.301 57.2764 388.048 57.2178 388.839 57.1006C391.007 57.1006 392.091 57.9648 392.091 59.6934V63.0771C390.099 63.5459 387.975 63.7803 385.719 63.7803C385.016 63.7803 384.327 63.751 383.653 63.6924C380.782 63.4873 378.57 62.3887 377.018 60.3965C375.465 58.4043 374.688 54.5225 374.688 48.751V2.34473Z" fill="#00D9BA"/>
<path d="M357.989 37.8086C357.638 33.3848 356.832 30.2939 355.572 28.5361C353.756 26.0459 350.606 24.8008 346.124 24.8008C341.583 24.8008 338.287 26.0312 336.236 28.4922C334.625 30.4258 333.658 33.5312 333.336 37.8086H357.989ZM347.442 64.0879C333.38 64.0879 326.349 56.4707 326.349 41.2363C326.349 26.002 332.94 18.3848 346.124 18.3848C353.272 18.3848 358.341 20.5967 361.329 25.0205C363.761 28.5947 364.977 33.9854 364.977 41.1924C364.977 43.2725 363.834 44.3125 361.549 44.3125H333.38C333.614 53.2188 338.302 57.6719 347.442 57.6719C352.071 57.6719 356.773 56.793 361.549 55.0352C362.076 54.8887 362.56 54.8154 362.999 54.8154C364.083 54.8154 364.625 55.416 364.625 56.6172V60.0449C360.143 62.7402 354.415 64.0879 347.442 64.0879Z" fill="#00D9BA"/>
<path d="M287.413 18.9121C289.903 18.9121 291.471 20.1279 292.115 22.5596L303.233 59.8252L314.352 22.5596C314.996 20.1279 316.563 18.9121 319.054 18.9121H322.438L310.177 59.9131C309.532 62.3447 307.965 63.5605 305.475 63.5605H300.992C298.502 63.5605 296.935 62.3447 296.29 59.9131L284.029 18.9121H287.413Z" fill="#00D9BA"/>
<path d="M273.263 37.8086C272.911 33.3848 272.105 30.2939 270.846 28.5361C269.029 26.0459 265.88 24.8008 261.397 24.8008C256.856 24.8008 253.561 26.0312 251.51 28.4922C249.898 30.4258 248.932 33.5312 248.609 37.8086H273.263ZM262.716 64.0879C248.653 64.0879 241.622 56.4707 241.622 41.2363C241.622 26.002 248.214 18.3848 261.397 18.3848C268.546 18.3848 273.614 20.5967 276.603 25.0205C279.034 28.5947 280.25 33.9854 280.25 41.1924C280.25 43.2725 279.107 44.3125 276.822 44.3125H248.653C248.888 53.2188 253.575 57.6719 262.716 57.6719C267.345 57.6719 272.047 56.793 276.822 55.0352C277.35 54.8887 277.833 54.8154 278.272 54.8154C279.356 54.8154 279.898 55.416 279.898 56.6172V60.0449C275.416 62.7402 269.688 64.0879 262.716 64.0879Z" fill="#00D9BA"/>
<path d="M231.515 40.4893C231.515 47.7842 229.229 53.4824 224.659 57.584C220.265 61.5684 214.391 63.5605 207.037 63.5605H182.516V24.5811C182.516 17.3154 184.801 11.6172 189.371 7.48633C193.766 3.50195 199.654 1.50977 207.037 1.50977C214.391 1.50977 220.265 3.50195 224.659 7.48633C229.229 11.6172 231.515 17.3154 231.515 24.5811V40.4893ZM207.037 57.0566C212.135 57.0566 216.251 55.6357 219.386 52.7939C222.638 49.8643 224.264 45.8799 224.264 40.8408V24.5811C224.264 19.542 222.638 15.543 219.386 12.584C216.251 9.74219 212.135 8.32129 207.037 8.32129C201.91 8.32129 197.779 9.74219 194.645 12.584C191.393 15.543 189.767 19.542 189.767 24.5811V57.0566H207.037Z" fill="#00D9BA"/>
<path d="M73.6022 1.80447C73.0874 1.28945 72.4726 0.884901 71.7955 0.615697C71.1183 0.346493 70.3932 0.218316 69.6646 0.239044H24.2705V5.60622C24.2611 6.30624 24.3987 7.00046 24.6744 7.64422C24.95 8.28798 25.3577 8.86702 25.8711 9.34408C26.3852 9.87308 27.003 10.2907 27.686 10.5711C28.3689 10.8514 29.1024 10.9883 29.8407 10.9734H44.3425V65.2841H49.6566C50.3875 65.3007 51.114 65.1675 51.7913 64.8928C52.4686 64.618 53.0822 64.2075 53.5942 63.6868C54.1348 63.1988 54.5656 62.6019 54.8581 61.9356C55.1506 61.2692 55.2981 60.5485 55.2909 59.8211V11.0053H75.2989V5.98959C75.2902 4.42938 74.6831 2.93174 73.6022 1.80447V1.80447Z" fill="white"/>
<path d="M102.414 20.0785C101.685 20.0577 100.96 20.1859 100.283 20.4551C99.6056 20.7243 98.9908 21.1289 98.4761 21.6439C97.9737 22.1344 97.5758 22.7212 97.3062 23.369C97.0367 24.0168 96.901 24.7123 96.9074 25.4137V47.0421C94.9867 52.3454 89.1604 54.9332 82.8858 54.9332C77.6998 54.9332 75.2028 52.5371 75.2028 47.6172V25.4137C75.2009 24.7077 75.0552 24.0094 74.7746 23.3614C74.4939 22.7133 74.0841 22.129 73.5701 21.6439C73.0543 21.1304 72.4392 20.7268 71.7624 20.4577C71.0855 20.1886 70.3609 20.0596 69.6325 20.0785H64.2544V48.6395C64.2544 59.5975 69.9207 65.1883 81.6694 65.1883C84.4846 65.3437 87.3007 64.8968 89.9288 63.8774C92.5568 62.8581 94.9362 61.2899 96.9074 59.278C96.9732 62.1172 96.0576 64.8924 94.3144 67.1371C92.8945 68.5833 91.1691 69.6951 89.264 70.3915C87.3588 71.0879 85.322 71.3513 83.302 71.1625C78.8497 71.109 74.4447 70.2428 70.3048 68.6067C69.6215 68.4524 68.9244 68.3668 68.224 68.3511C67.7106 68.2912 67.1902 68.347 66.7013 68.5143C66.2123 68.6817 65.7672 68.9563 65.3986 69.318C65.03 69.6796 64.7474 70.1192 64.5716 70.6043C64.3957 71.0894 64.3311 71.6076 64.3824 72.1209V76.5297L64.7026 76.7214C70.3473 79.9746 76.7861 81.6003 83.302 81.4176C98.5401 81.4176 107.856 73.1752 107.856 56.9459V20.0785H102.414Z" fill="white"/>
<path d="M152.386 45.3489C151.878 43.7868 150.85 42.4451 149.472 41.5472C150.399 40.1181 151.101 38.5558 151.553 36.9148L158.404 20.0784H152.194C150.824 19.931 149.444 20.2522 148.281 20.9893C147.118 21.7264 146.24 22.8358 145.791 24.1358L141.117 34.9021C140.776 35.7966 139.709 36.2439 137.916 36.2439H127.64V5.51039C127.657 4.81989 127.529 4.13347 127.264 3.49524C127 2.85701 126.604 2.28109 126.103 1.80448C125.591 1.28635 124.976 0.879759 124.299 0.610336C123.621 0.340913 122.895 0.214496 122.166 0.239054H116.787V65.1564H122.198C122.938 65.1634 123.671 65.0197 124.354 64.734C125.036 64.4484 125.653 64.0268 126.167 63.4951C126.677 63.0217 127.082 62.4478 127.357 61.8099C127.633 61.1719 127.773 60.4838 127.768 59.7892V47.0102H139.805C141.501 47.0102 141.949 47.7769 142.141 48.3839L147.744 61.1629C148.208 62.4383 149.097 63.5154 150.263 64.2135C151.429 64.9116 152.8 65.1881 154.146 64.9966H160.325L152.386 45.3489Z" fill="white"/>
<path d="M29.6807 31.3559C29.3522 27.8168 27.7331 24.5212 25.1306 22.0949C22.5281 19.6685 19.1235 18.2802 15.563 18.1936H0.869141V33.2089C1.02661 36.8496 2.54862 40.2986 5.13365 42.8724C7.71869 45.4463 11.1782 46.9572 14.8267 47.106H29.8727V31.5476L29.6807 31.3559Z" fill="#00D9BA"/>
</svg>
